<?xml version="1.0" encoding="UTF-8" ?>
<!DOCTYPE svg PUBLIC "-//W3C//DTD SVG 1.1//EN" "http://www.w3.org/Graphics/SVG/1.1/DTD/svg11.dtd">
<svg width="569pt" height="569pt" viewBox="0 0 569 569" version="1.1" xmlns="http://www.w3.org/2000/svg">
<path fill="#000000" opacity="1.00" d=" M 239.28 1.41 C 246.59 0.55 254.28 5.05 257.60 11.51 C 266.65 12.46 275.02 0.72 284.21 6.50 C 293.89 1.22 301.55 11.24 310.74 11.79 C 315.12 5.57 323.08 -0.41 331.18 1.77 C 336.21 4.10 330.89 12.00 336.02 14.19 C 338.74 11.23 339.42 6.96 342.29 4.13 C 353.09 5.80 355.90 18.41 359.05 26.88 C 366.41 24.67 375.43 23.65 381.68 29.03 C 381.18 35.61 380.07 43.39 388.84 43.89 C 392.84 30.61 406.43 35.41 411.03 45.00 C 416.36 58.15 427.29 35.86 437.38 43.42 C 446.63 43.85 437.74 52.16 439.51 57.11 C 444.35 57.69 445.87 50.68 450.70 51.27 C 458.48 54.81 461.11 65.15 458.25 72.76 C 465.35 78.99 476.99 78.05 481.43 87.57 C 491.88 91.38 489.53 103.89 496.25 110.75 C 503.84 107.84 514.15 110.66 517.75 118.28 C 518.30 123.12 511.32 124.64 511.89 129.49 C 516.41 131.18 520.08 125.82 524.36 127.51 C 528.15 136.25 525.34 146.45 519.02 153.21 C 522.12 158.92 531.49 160.49 532.99 168.17 C 538.09 175.64 520.84 177.10 526.65 184.32 C 528.43 190.19 535.43 186.60 539.95 187.31 C 545.24 193.51 544.38 202.59 542.15 209.91 C 550.53 213.15 563.22 215.88 564.87 226.71 C 562.04 229.57 557.77 230.26 554.81 232.98 C 556.99 238.11 564.89 232.79 567.21 237.82 C 569.26 245.49 564.30 254.06 557.49 257.60 C 556.54 266.65 568.28 275.02 562.50 284.21 C 567.78 293.89 557.76 301.55 557.21 310.74 C 563.42 315.12 569.41 323.08 567.23 331.18 C 564.90 336.21 557.00 330.89 554.81 336.02 C 557.77 338.74 562.04 339.42 564.87 342.29 C 563.20 353.09 550.59 355.90 542.12 359.05 C 544.33 366.41 545.35 375.43 539.97 381.68 C 533.39 381.18 525.61 380.07 525.11 388.84 C 538.39 392.84 533.59 406.43 524.00 411.03 C 510.85 416.36 533.14 427.29 525.58 437.38 C 525.15 446.63 516.84 437.74 511.89 439.51 C 511.31 444.35 518.32 445.87 517.73 450.70 C 514.19 458.48 503.85 461.11 496.24 458.25 C 490.01 465.35 490.95 476.99 481.43 481.43 C 477.62 491.88 465.11 489.53 458.25 496.25 C 461.16 503.84 458.34 514.15 450.72 517.75 C 445.88 518.30 444.36 511.32 439.51 511.89 C 437.82 516.41 443.18 520.08 441.49 524.36 C 432.75 528.15 422.55 525.34 415.79 519.02 C 410.08 522.12 408.51 531.49 400.83 532.99 C 393.36 538.09 391.90 520.84 384.68 526.65 C 378.81 528.43 382.40 535.43 381.69 539.95 C 375.49 545.24 366.41 544.38 359.09 542.15 C 355.85 550.53 353.12 563.22 342.29 564.87 C 339.42 562.04 338.74 557.77 336.02 554.81 C 330.89 556.99 336.21 564.89 331.18 567.21 C 323.51 569.26 314.94 564.30 311.40 557.49 C 302.34 556.54 293.98 568.28 284.79 562.50 C 275.11 567.78 267.45 557.76 258.26 557.21 C 253.87 563.42 245.92 569.41 237.82 567.23 C 232.78 564.90 238.11 557.00 232.98 554.81 C 230.26 557.77 229.57 562.04 226.71 564.87 C 215.91 563.20 213.10 550.59 209.95 542.12 C 202.59 544.33 193.57 545.35 187.32 539.97 C 187.81 533.39 188.93 525.61 180.16 525.11 C 176.16 538.39 162.57 533.59 157.97 524.00 C 152.64 510.85 141.71 533.14 131.62 525.58 C 122.37 525.15 131.26 516.84 129.49 511.89 C 124.64 511.31 123.13 518.32 118.30 517.73 C 110.52 514.19 107.88 503.85 110.75 496.24 C 103.65 490.01 92.00 490.95 87.57 481.43 C 77.11 477.62 79.47 465.11 72.75 458.25 C 65.16 461.16 54.85 458.34 51.25 450.72 C 50.70 445.88 57.68 444.36 57.11 439.51 C 52.59 437.82 48.91 443.18 44.64 441.49 C 40.85 432.75 43.66 422.55 49.98 415.79 C 46.88 410.08 37.51 408.51 36.01 400.83 C 30.90 393.36 48.16 391.90 42.35 384.68 C 40.57 378.81 33.57 382.40 29.05 381.69 C 23.75 375.49 24.62 366.41 26.85 359.09 C 18.47 355.85 5.78 353.12 4.13 342.29 C 6.96 339.42 11.23 338.74 14.19 336.02 C 12.01 330.89 4.11 336.21 1.79 331.18 C -0.26 323.51 4.70 314.94 11.51 311.40 C 12.46 302.34 0.72 293.98 6.50 284.79 C 1.22 275.11 11.24 267.45 11.79 258.26 C 5.57 253.87 -0.41 245.92 1.77 237.82 C 4.10 232.78 12.00 238.11 14.19 232.98 C 11.23 230.26 6.96 229.57 4.13 226.71 C 5.80 215.91 18.41 213.10 26.88 209.95 C 24.67 202.59 23.65 193.57 29.03 187.32 C 35.61 187.81 43.39 188.93 43.89 180.16 C 30.61 176.16 35.41 162.57 45.00 157.97 C 58.15 152.64 35.86 141.71 43.42 131.62 C 43.85 122.37 52.16 131.26 57.11 129.49 C 57.69 124.64 50.68 123.13 51.27 118.30 C 54.81 110.52 65.15 107.88 72.76 110.75 C 78.99 103.65 78.05 92.00 87.57 87.57 C 91.38 77.11 103.89 79.47 110.75 72.75 C 107.84 65.16 110.66 54.85 118.28 51.25 C 123.12 50.70 124.64 57.68 129.49 57.11 C 131.18 52.59 125.82 48.91 127.51 44.64 C 136.25 40.85 146.45 43.66 153.21 49.98 C 158.92 46.88 160.49 37.51 168.17 36.01 C 175.64 30.90 177.10 48.16 184.32 42.35 C 190.19 40.57 186.60 33.57 187.31 29.05 C 193.51 23.75 202.59 24.62 209.91 26.85 C 213.15 18.47 215.88 5.78 226.71 4.13 C 229.57 6.96 230.26 11.23 232.98 14.19 C 238.35 11.90 232.18 2.16 239.28 1.41 M 281.21 12.33 C 273.11 14.73 261.37 18.67 262.41 29.17 C 262.35 40.57 255.55 49.07 245.16 53.19 C 252.02 75.47 268.39 93.20 283.22 110.53 C 284.53 112.67 286.11 110.11 287.17 109.12 C 301.21 91.94 317.34 74.96 323.84 53.19 C 313.21 49.05 306.39 40.07 306.50 28.49 C 307.28 18.01 294.99 14.56 287.03 12.14 C 282.78 17.93 295.11 20.41 292.42 26.58 C 287.19 26.61 281.86 27.03 276.70 26.25 C 273.26 21.97 287.72 15.86 281.21 12.33 M 248.27 15.11 C 244.12 27.05 229.84 26.61 224.13 16.99 C 214.73 28.44 224.80 48.25 239.79 47.74 C 255.88 48.52 260.97 21.74 248.27 15.11 M 319.25 15.09 C 308.76 24.60 313.33 47.75 329.19 47.74 C 344.26 48.21 354.07 28.66 344.89 16.97 C 338.37 28.12 324.73 24.72 319.25 15.09 M 201.62 34.34 C 188.08 33.66 199.76 40.95 197.11 47.08 C 188.34 49.10 174.74 61.94 172.76 46.17 C 151.63 50.24 163.44 69.80 159.18 83.44 C 174.59 80.96 181.10 61.09 197.52 59.44 C 207.79 55.54 223.91 62.23 230.81 53.05 C 219.54 48.89 216.24 30.90 201.62 34.34 M 361.93 34.63 C 350.46 34.82 348.71 50.13 338.06 53.03 C 347.75 63.71 366.68 54.12 378.86 62.13 C 390.96 66.45 396.70 81.96 409.82 83.44 C 404.91 71.02 416.95 55.41 401.02 47.82 C 392.99 39.56 395.88 59.36 388.13 53.93 C 382.92 49.37 367.39 50.47 372.52 40.70 C 379.27 34.64 366.31 33.28 361.93 34.63 M 138.05 52.14 C 139.99 63.52 130.99 74.16 119.25 68.09 C 116.19 81.69 135.69 96.77 147.60 86.61 C 160.37 76.61 153.15 54.82 138.05 52.14 M 430.19 52.28 C 415.22 55.65 408.80 77.52 421.97 87.06 C 433.97 96.39 452.74 81.38 449.75 68.09 C 436.73 75.26 430.42 61.18 430.19 52.28 M 194.92 62.85 C 182.48 66.46 178.80 82.11 166.91 87.19 C 178.54 102.91 195.23 114.35 212.18 123.81 C 214.50 125.33 219.43 129.17 220.67 124.69 C 227.07 104.48 230.11 83.19 228.77 61.97 C 217.58 65.36 206.24 60.86 194.92 62.85 M 239.10 62.36 C 239.93 87.77 237.63 117.64 225.11 141.96 C 202.57 132.29 180.68 119.30 164.94 100.08 C 163.02 98.07 161.50 94.87 158.29 95.02 C 172.52 126.83 204.98 143.51 233.12 161.07 C 241.30 130.06 253.17 91.26 239.10 62.36 M 328.31 62.32 C 317.48 94.79 327.44 129.20 335.87 161.09 C 363.54 143.85 394.84 127.54 410.03 97.08 C 412.33 93.70 407.22 95.34 406.41 97.32 C 390.29 117.78 367.61 131.94 343.89 141.96 C 333.42 118.67 327.55 92.68 330.54 67.13 C 330.34 64.99 331.84 61.30 328.31 62.32 M 340.31 61.98 C 339.11 83.77 341.93 106.19 349.38 126.62 C 369.32 118.79 387.83 104.54 402.07 87.96 C 393.79 81.27 386.99 73.07 379.81 65.17 C 367.70 58.11 353.13 66.61 340.31 61.98 M 106.08 84.60 C 101.93 86.37 92.62 87.21 94.49 93.45 C 97.88 93.85 108.75 91.68 106.62 98.38 C 102.88 100.44 100.57 104.12 97.69 106.94 C 89.18 108.09 97.97 91.13 89.76 94.58 C 84.19 102.02 81.26 113.78 89.28 120.73 C 97.13 128.42 96.67 139.30 93.09 148.67 C 114.04 159.08 138.61 161.87 161.61 161.66 C 162.09 139.84 158.81 116.95 150.57 96.45 C 148.79 89.64 142.04 96.14 137.53 95.79 C 125.14 97.65 118.33 81.57 106.08 84.60 M 455.56 84.52 C 445.35 91.96 433.30 100.03 420.33 93.09 C 409.92 114.04 407.13 138.61 407.34 161.61 C 430.27 161.74 454.97 159.13 475.91 148.67 C 472.33 139.30 471.87 128.42 479.72 120.73 C 487.74 113.78 484.81 102.02 479.24 94.58 C 471.02 91.13 479.82 108.09 471.31 106.94 C 468.53 103.70 465.30 100.47 462.06 97.69 C 460.91 89.18 477.87 97.98 474.42 89.76 C 469.10 85.93 462.21 83.37 455.56 84.52 M 257.04 86.02 C 263.02 102.41 275.55 115.62 284.81 129.61 C 293.39 114.84 306.14 102.45 311.97 86.02 C 301.24 94.21 294.54 108.06 284.86 117.98 C 274.43 109.12 268.07 94.07 257.04 86.02 M 248.89 104.99 C 245.85 125.42 242.62 146.13 236.05 165.80 C 216.02 159.66 200.46 142.88 182.14 132.88 C 186.62 141.14 189.53 151.87 199.92 154.02 C 205.49 161.52 208.87 172.14 217.71 176.55 C 218.21 184.21 219.53 191.68 226.61 196.38 C 236.23 205.07 241.73 218.37 252.84 225.05 C 255.86 215.01 270.18 226.23 265.54 211.97 C 261.49 195.17 268.07 174.24 255.22 160.76 C 257.17 152.22 254.67 141.84 251.55 135.35 C 257.52 125.57 253.31 113.29 248.89 104.99 M 319.30 105.32 C 317.84 111.03 314.04 118.12 314.39 124.60 C 321.88 137.25 309.34 147.03 313.79 160.75 C 311.44 165.01 305.88 167.99 306.49 173.46 C 306.97 189.31 301.58 205.08 304.10 220.80 C 310.04 217.64 313.11 220.37 316.16 225.05 C 328.24 217.33 334.62 202.91 345.26 193.22 C 351.37 189.14 349.87 181.85 351.61 175.84 C 363.92 171.37 363.02 153.41 376.59 150.62 C 380.83 145.50 383.69 138.92 387.05 133.05 C 368.81 143.33 352.86 159.42 332.93 165.81 C 325.70 146.52 323.48 123.60 319.30 105.32 M 260.94 115.39 C 259.53 122.78 266.86 125.44 270.28 130.37 C 268.92 138.41 278.20 143.28 275.43 151.58 C 279.43 163.98 278.16 179.31 284.91 190.04 C 292.72 169.59 290.61 146.31 300.86 127.80 C 304.69 125.15 310.95 118.52 306.49 115.37 C 300.28 125.83 292.93 136.38 284.87 144.97 C 274.46 138.49 269.91 122.47 260.94 115.39 M 70.16 118.33 C 65.12 120.00 71.86 126.80 68.88 130.74 C 66.93 138.57 58.23 136.84 52.14 138.05 C 54.82 153.14 76.61 160.38 86.61 147.60 C 96.13 135.71 83.41 119.32 70.16 118.33 M 498.10 118.44 C 485.10 119.82 473.10 135.93 482.39 147.60 C 492.39 160.37 514.18 153.15 516.86 138.05 C 510.76 136.84 502.07 138.57 500.12 130.74 C 497.05 126.81 504.43 118.72 498.10 118.44 M 163.10 125.27 C 162.66 138.69 166.78 152.97 166.82 166.82 C 152.99 166.40 138.59 162.69 125.23 163.10 C 140.02 171.92 159.39 170.03 175.69 175.71 C 169.91 159.52 171.93 139.97 163.10 125.27 M 405.25 125.49 C 397.58 141.05 398.64 159.31 393.29 175.69 C 409.48 169.91 429.03 171.93 443.73 163.10 C 430.31 162.66 416.03 166.78 402.18 166.82 C 402.00 153.58 407.46 136.70 405.25 125.49 M 262.25 130.17 C 259.43 131.43 256.08 134.76 259.77 137.24 C 264.45 140.39 267.99 130.89 262.25 130.17 M 306.00 130.24 C 301.11 131.75 305.06 140.12 309.23 137.24 C 313.14 134.73 309.14 130.59 306.00 130.24 M 282.87 135.45 C 281.17 142.10 291.60 134.18 282.87 135.45 M 264.32 143.17 C 257.72 156.81 281.54 142.99 264.32 143.17 M 300.58 143.20 C 294.85 144.62 300.59 152.60 304.73 149.57 C 307.72 148.28 305.17 139.73 300.58 143.20 M 181.57 148.31 C 181.03 160.76 187.59 173.52 186.20 186.06 C 173.70 186.79 160.75 181.38 148.00 181.10 C 152.11 190.00 162.99 181.43 168.19 187.98 C 186.67 193.75 198.92 211.32 217.79 217.79 C 209.92 197.05 190.61 182.91 185.22 161.96 C 186.24 157.13 185.61 149.65 181.57 148.31 M 387.32 148.45 C 379.14 152.76 387.58 163.18 381.02 168.19 C 375.25 186.67 357.68 198.92 351.21 217.79 C 363.85 213.35 373.26 203.59 384.71 197.23 C 393.90 185.66 409.48 187.20 421.39 181.87 C 408.80 180.25 395.70 187.94 382.94 186.20 C 381.63 174.52 388.84 158.33 387.32 148.45 M 269.26 157.25 C 263.36 157.63 267.23 168.23 271.81 163.79 C 276.31 162.46 273.13 156.13 269.26 157.25 M 298.25 157.27 C 292.17 158.60 295.96 165.71 300.83 164.86 C 303.92 162.12 303.14 156.37 298.25 157.27 M 60.18 158.48 C 54.16 160.90 48.19 164.75 46.05 171.27 C 45.37 176.18 55.58 173.56 54.81 178.80 C 50.45 186.49 48.47 205.23 36.91 193.93 C 25.66 211.05 46.48 219.64 53.75 230.98 C 63.23 218.86 53.98 200.88 63.19 188.18 C 67.89 177.23 82.22 171.60 83.44 159.18 C 75.66 160.89 67.84 161.38 60.18 158.48 M 95.02 158.29 C 94.84 161.24 97.63 162.76 99.53 164.48 C 118.94 180.32 132.25 202.32 141.96 225.11 C 117.21 236.65 89.49 241.39 62.38 238.32 C 64.32 244.01 76.88 244.59 83.16 244.51 C 109.87 248.32 135.55 239.20 161.09 233.13 C 143.49 204.99 126.84 172.52 95.02 158.29 M 473.16 158.59 C 441.92 173.14 425.34 205.16 407.93 233.12 C 439.72 242.02 474.21 251.24 506.69 240.68 C 507.69 237.16 504.00 238.66 501.86 238.46 C 476.33 241.27 450.32 235.69 427.04 225.11 C 437.14 201.16 451.46 178.29 472.21 162.12 C 473.52 161.75 474.71 157.86 473.16 158.59 M 508.11 158.63 C 500.69 161.61 493.10 160.68 485.56 159.18 C 487.56 173.42 504.91 179.52 508.53 193.52 C 513.86 205.41 506.75 220.55 515.24 231.05 C 521.47 219.68 541.22 213.61 533.70 196.70 C 532.08 189.88 524.31 202.84 521.24 195.74 C 519.92 187.76 507.09 174.58 522.44 173.44 C 523.74 165.74 514.42 160.64 508.11 158.63 M 192.46 159.40 C 187.25 159.37 191.78 168.28 195.39 165.49 C 200.36 164.78 197.31 155.69 192.46 159.40 M 372.41 159.15 C 367.39 163.40 376.65 169.41 378.37 163.24 C 381.13 159.45 374.83 158.54 372.41 159.15 M 87.37 167.33 C 81.15 176.09 72.15 182.14 64.77 189.80 C 58.49 201.93 66.46 216.03 61.98 228.69 C 83.77 229.89 106.19 227.07 126.62 219.62 C 118.66 200.12 104.31 179.58 87.37 167.33 M 480.51 167.53 C 465.99 179.60 454.52 195.00 445.60 211.57 C 444.06 214.05 439.61 219.20 444.31 220.67 C 464.52 227.07 485.81 230.11 507.03 228.77 C 502.93 216.00 510.12 202.21 504.31 189.80 C 496.66 182.14 486.56 174.51 480.51 167.53 M 197.56 171.22 C 192.59 174.76 197.47 180.01 201.90 176.96 C 206.94 175.12 201.44 168.55 197.56 171.22 M 367.48 171.23 C 361.55 173.48 368.21 180.24 372.04 177.15 C 376.51 176.19 370.73 168.33 367.48 171.23 M 271.30 174.19 C 268.02 174.50 269.54 178.54 269.49 180.75 C 274.64 200.33 272.03 223.57 284.86 239.54 C 296.36 220.17 296.36 196.86 299.63 174.97 C 288.25 176.01 290.70 197.66 284.11 204.70 C 280.07 194.61 278.82 181.77 271.30 174.19 M 180.56 178.26 C 173.17 184.30 186.24 180.61 180.56 178.26 M 386.79 178.14 C 387.59 185.80 394.46 179.13 386.79 178.14 M 132.93 182.07 C 143.52 200.09 159.34 216.20 165.81 236.07 C 146.52 243.30 123.60 245.52 105.32 249.70 C 111.31 250.99 118.61 255.60 125.38 254.43 C 137.48 247.39 146.83 259.39 160.03 255.35 C 164.85 256.41 167.66 263.44 173.46 262.51 C 189.31 262.03 205.08 267.42 220.80 264.90 C 217.64 258.95 220.37 255.89 225.05 252.84 C 217.33 240.76 202.91 234.38 193.22 223.74 C 189.14 217.63 181.85 219.13 175.84 217.39 C 171.59 205.23 153.86 206.15 150.96 193.07 C 146.80 187.38 138.49 186.10 132.93 182.07 M 435.30 182.42 C 427.28 186.89 417.05 189.81 414.98 199.92 C 407.49 205.49 396.86 208.87 392.45 217.71 C 384.79 218.21 377.32 219.53 372.62 226.61 C 363.93 236.23 350.62 241.73 343.95 252.84 C 353.99 255.86 342.77 270.18 357.03 265.54 C 373.83 261.49 394.76 268.07 408.24 255.22 C 416.78 257.17 427.15 254.67 433.65 251.55 C 443.43 257.52 455.71 253.31 464.01 248.89 C 443.58 245.85 422.87 242.62 403.20 236.05 C 408.61 216.45 428.07 198.80 435.30 182.42 M 206.41 183.22 C 201.80 184.41 202.33 192.40 207.49 190.50 C 213.06 190.62 211.29 181.47 206.41 183.22 M 360.34 183.19 C 354.88 185.81 360.00 192.75 364.37 190.40 C 368.32 187.92 363.90 182.07 360.34 183.19 M 160.17 190.13 C 154.75 206.60 174.62 190.97 160.17 190.13 M 406.46 190.28 C 401.14 190.76 402.91 199.38 407.69 197.74 C 411.89 197.44 410.31 188.48 406.46 190.28 M 175.29 195.26 C 170.87 195.81 169.34 201.55 173.30 203.85 C 178.21 205.05 179.32 195.85 175.29 195.26 M 393.00 194.98 C 389.85 197.66 391.07 204.56 395.70 203.85 C 400.07 201.21 397.60 195.43 393.00 194.98 M 216.73 195.98 C 214.14 207.74 224.66 217.17 228.10 227.87 C 217.01 225.56 207.19 212.23 195.76 217.64 C 214.55 230.26 230.24 248.51 253.11 253.00 C 247.49 230.67 231.00 213.38 216.73 195.98 M 351.36 195.76 C 338.74 214.55 320.49 230.24 316.00 253.11 C 338.56 247.97 354.50 230.52 373.23 217.75 C 362.40 212.21 351.75 225.47 340.94 227.92 C 343.55 217.10 356.79 207.07 351.36 195.76 M 186.42 203.23 C 183.25 204.53 181.37 209.25 185.45 210.78 C 191.29 213.36 192.98 201.31 186.42 203.23 M 380.39 203.22 C 375.47 204.91 379.80 213.80 384.24 210.38 C 388.47 208.16 383.92 202.02 380.39 203.22 M 26.13 220.48 C 22.98 219.75 13.45 223.40 19.23 226.81 C 28.58 231.98 24.19 245.31 15.11 248.27 C 21.84 260.93 48.33 256.02 47.74 239.81 C 47.48 228.13 37.64 220.17 26.13 220.48 M 542.16 220.44 C 530.88 220.51 521.57 228.38 521.26 239.79 C 520.48 255.88 547.26 260.97 553.89 248.27 C 545.22 245.39 540.36 232.65 549.22 227.25 C 556.00 223.85 545.98 218.94 542.16 220.44 M 261.16 226.07 C 251.22 238.15 260.54 256.40 267.92 267.92 C 257.39 260.73 244.39 254.77 231.39 257.90 C 228.10 257.01 225.00 260.56 226.81 263.29 C 233.12 275.81 247.16 282.61 260.62 284.07 C 248.34 287.47 229.68 293.37 226.46 308.49 C 239.21 317.11 256.33 308.54 267.92 301.08 C 260.73 311.61 254.77 324.61 257.90 337.61 C 257.01 340.87 260.56 344.01 263.29 342.19 C 275.81 335.88 282.61 321.84 284.07 308.38 C 287.47 320.66 293.37 339.32 308.49 342.54 C 317.20 329.74 308.32 312.79 301.31 300.95 C 312.73 309.42 329.45 316.27 342.51 308.64 C 339.73 293.52 320.53 287.02 308.37 284.11 C 322.16 282.10 338.97 274.96 342.54 260.51 C 329.74 251.80 312.79 260.68 300.95 267.69 C 309.42 256.27 316.27 239.55 308.64 226.49 C 293.52 229.27 287.02 248.47 284.11 260.63 C 282.07 246.65 275.31 231.35 261.16 226.07 M 53.19 245.16 C 49.05 255.79 40.07 262.61 28.49 262.50 C 18.01 261.72 14.56 274.01 12.14 281.97 C 17.93 286.22 20.41 273.89 26.58 276.58 C 26.41 282.03 27.39 287.75 25.97 293.05 C 20.29 293.78 17.65 283.05 12.15 287.04 C 14.51 295.32 18.37 307.62 29.17 306.59 C 40.57 306.65 49.07 313.44 53.19 323.84 C 75.47 316.98 93.20 300.61 110.53 285.78 C 112.67 284.47 110.11 282.88 109.12 281.83 C 91.94 267.79 74.96 251.65 53.19 245.16 M 514.42 245.60 C 492.77 252.74 475.44 268.68 458.47 283.22 C 456.32 284.53 458.89 286.11 459.88 287.17 C 477.06 301.21 494.04 317.34 515.81 323.84 C 519.95 313.21 528.93 306.39 540.51 306.50 C 550.99 307.28 554.44 294.99 556.86 287.03 C 551.07 282.78 548.59 295.11 542.42 292.42 C 542.58 286.97 541.60 281.24 543.03 275.95 C 548.70 275.21 551.35 285.95 556.85 281.96 C 554.46 275.01 552.38 265.09 544.25 262.84 C 537.60 262.35 530.93 261.08 524.86 258.24 C 520.19 255.34 519.53 246.03 514.42 245.60 M 86.02 257.03 C 94.21 267.76 108.06 274.46 117.98 284.14 C 109.12 294.57 94.07 300.93 86.02 311.96 C 102.41 305.98 115.62 293.45 129.61 284.19 C 114.84 275.61 102.45 262.86 86.02 257.03 M 481.53 257.49 C 465.84 263.86 452.96 275.77 439.39 284.81 C 454.16 293.39 466.55 306.14 482.98 311.97 C 474.93 300.93 459.88 294.57 451.02 284.14 C 461.27 275.57 471.87 267.48 482.31 259.19 C 482.80 257.94 483.49 256.30 481.53 257.49 M 133.40 258.22 C 131.25 259.68 128.42 264.09 132.34 264.93 C 138.98 267.84 139.26 256.64 133.40 258.22 M 433.51 258.37 C 428.79 260.00 432.35 268.07 437.29 264.86 C 440.85 262.84 436.36 257.03 433.51 258.37 M 115.39 260.94 C 122.91 269.49 138.10 275.12 144.90 284.86 C 136.96 293.92 124.16 299.72 115.36 307.27 C 121.68 310.59 125.59 302.09 130.37 298.72 C 138.41 300.08 143.28 290.80 151.58 293.57 C 163.98 289.57 179.31 290.84 190.04 284.09 C 169.59 276.28 146.31 278.39 127.80 268.14 C 124.65 264.27 121.13 259.98 115.39 260.94 M 449.61 261.42 C 444.42 261.94 442.82 267.97 438.63 270.28 C 430.59 268.92 425.72 278.20 417.42 275.43 C 405.02 279.43 389.69 278.16 378.96 284.91 C 399.41 292.72 422.69 290.61 441.20 300.86 C 444.17 304.72 449.05 309.98 453.64 307.27 C 444.65 299.77 431.24 293.39 424.10 284.14 C 432.04 275.08 444.84 269.28 453.64 261.73 C 452.63 261.65 450.62 261.50 449.61 261.42 M 145.41 263.27 C 139.90 263.58 144.16 274.34 147.96 269.92 C 152.06 268.06 149.93 260.96 145.41 263.27 M 420.32 263.26 C 415.46 265.49 422.82 274.77 425.44 269.16 C 428.66 264.88 423.74 262.10 420.32 263.26 M 159.24 266.09 C 153.65 269.21 160.85 278.19 163.79 271.81 C 166.93 268.26 162.51 266.02 159.24 266.09 M 408.27 266.32 C 402.11 265.71 404.07 274.59 408.80 273.97 C 413.03 273.46 412.49 265.43 408.27 266.32 M 174.97 269.37 C 176.01 280.75 197.66 278.30 204.70 284.89 C 195.71 289.61 177.11 289.59 174.99 299.61 C 196.48 295.74 221.78 297.10 239.54 284.14 C 220.17 272.63 196.86 272.64 174.97 269.37 M 388.25 269.49 C 368.67 274.64 345.43 272.03 329.46 284.86 C 348.83 296.36 372.14 296.36 394.03 299.63 C 392.99 288.25 371.34 290.70 364.30 284.11 C 374.56 280.33 386.00 278.55 394.89 272.00 C 395.12 268.14 390.71 269.34 388.25 269.49 M 136.17 282.32 C 131.52 288.11 142.90 285.99 136.17 282.32 M 432.19 282.44 C 426.74 288.20 438.24 285.70 432.19 282.44 M 159.44 295.19 C 155.23 297.06 157.67 305.07 162.21 302.30 C 167.50 301.83 163.44 293.21 159.44 295.19 M 406.49 295.24 C 404.68 297.32 402.42 301.79 406.79 302.30 C 413.30 305.68 413.12 292.41 406.49 295.24 M 145.25 298.15 C 141.57 300.03 142.25 306.70 147.04 305.97 C 152.68 306.51 149.46 296.90 145.25 298.15 M 422.36 298.17 C 418.08 299.21 417.50 307.30 422.79 305.93 C 428.00 306.25 426.46 297.18 422.36 298.17 M 206.92 303.54 C 192.01 308.12 173.19 301.14 161.36 313.38 C 152.86 312.51 141.97 313.81 135.35 317.45 C 125.57 311.48 113.29 315.68 104.99 320.11 C 125.42 323.15 146.13 326.38 165.80 332.95 C 159.66 352.98 142.88 368.54 132.88 386.86 C 141.14 382.38 151.87 379.47 154.02 369.08 C 161.52 363.51 172.14 360.13 176.55 351.29 C 184.21 350.79 191.68 349.47 196.38 342.39 C 204.99 333.51 216.12 327.50 224.33 318.21 C 227.26 314.12 218.47 313.81 219.63 310.18 C 224.85 300.30 212.56 303.86 206.92 303.54 M 350.55 303.46 C 344.94 303.52 352.18 310.66 348.45 312.54 C 346.77 314.04 342.49 315.43 344.67 318.21 C 354.85 329.21 367.95 336.88 378.46 347.58 C 382.22 351.95 388.50 349.33 393.16 351.61 C 397.63 363.92 415.59 363.02 418.38 376.59 C 423.49 380.83 430.08 383.69 435.95 387.05 C 425.67 368.81 409.58 352.86 403.19 332.93 C 422.48 325.70 445.40 323.48 463.68 319.30 C 457.69 318.01 450.39 313.40 443.62 314.57 C 431.52 321.61 422.17 309.61 408.97 313.65 C 404.32 312.73 401.72 306.06 396.30 306.51 C 380.93 306.72 365.90 302.69 350.55 303.46 M 131.71 304.14 C 127.94 306.22 133.25 312.94 136.09 310.20 C 140.12 308.25 136.07 300.98 131.71 304.14 M 432.65 304.31 C 430.08 306.70 431.40 310.91 434.88 310.94 C 439.90 309.61 439.77 300.72 432.65 304.31 M 28.11 313.46 C 22.48 313.53 8.37 319.80 19.78 324.20 C 28.77 329.71 23.48 340.34 16.99 344.87 C 28.44 354.27 48.25 344.20 47.74 329.21 C 48.35 318.84 37.19 313.37 28.11 313.46 M 539.40 313.57 C 530.42 313.48 520.36 320.01 521.27 329.90 C 521.38 344.66 540.58 353.86 552.03 344.89 C 545.54 340.35 540.21 329.72 549.22 324.20 C 561.12 319.50 545.11 312.65 539.40 313.57 M 252.06 316.16 C 229.94 321.39 214.28 338.75 195.77 351.25 C 206.53 356.69 217.29 343.79 227.87 340.90 C 225.56 351.99 212.23 361.80 217.64 373.24 C 229.37 355.34 250.74 336.49 252.06 316.16 M 315.89 316.00 C 321.03 338.56 338.48 354.50 351.25 373.23 C 356.79 362.40 343.53 351.75 341.08 340.94 C 351.90 343.55 361.93 356.79 373.24 351.36 C 354.45 338.74 338.76 320.49 315.89 316.00 M 91.28 323.56 C 82.31 325.52 66.91 322.78 62.39 330.68 C 89.49 327.76 117.21 332.27 141.96 343.89 C 132.29 366.43 119.30 388.32 100.08 404.06 C 98.07 405.98 94.87 407.49 95.02 410.71 C 126.83 396.48 143.51 364.02 161.07 335.88 C 138.08 330.03 115.34 322.71 91.28 323.56 M 476.12 323.46 C 452.50 322.99 430.51 330.52 407.91 335.87 C 425.15 363.54 441.46 394.84 471.92 410.03 C 475.30 412.33 473.66 407.22 471.68 406.41 C 451.22 390.29 437.05 367.61 427.04 343.89 C 451.78 332.35 479.51 327.61 506.62 330.68 C 501.60 322.38 485.45 325.55 476.12 323.46 M 284.14 329.46 C 272.63 348.83 272.64 372.14 269.37 394.03 C 280.75 392.99 278.30 371.34 284.89 364.30 C 289.61 373.29 289.59 391.89 299.61 394.01 C 295.74 372.52 297.10 347.22 284.14 329.46 M 52.35 338.41 C 48.70 350.44 30.02 353.10 34.45 368.20 C 33.81 381.58 42.38 367.52 47.44 372.57 C 49.34 381.23 61.77 394.36 46.17 396.24 C 50.24 417.37 69.80 405.56 83.44 409.82 C 80.96 394.41 61.09 387.90 59.44 371.48 C 55.33 361.67 62.74 343.15 52.35 338.41 M 515.25 338.02 C 505.77 350.13 515.02 368.12 505.81 380.82 C 501.11 391.77 486.78 397.40 485.56 409.82 C 497.98 404.91 513.59 416.95 521.18 401.02 C 528.52 393.53 513.82 395.97 514.19 390.20 C 518.55 382.51 520.53 363.77 532.09 375.07 C 543.34 357.95 522.52 349.36 515.25 338.02 M 61.97 340.23 C 65.95 352.81 59.22 366.18 64.34 378.53 C 71.10 387.16 82.10 391.96 87.19 402.09 C 102.91 390.46 114.35 373.76 123.81 356.82 C 125.33 354.49 129.17 349.57 124.69 348.33 C 104.48 341.93 83.19 338.89 61.97 340.23 M 479.90 340.77 C 467.31 342.91 454.21 344.63 442.38 349.38 C 450.21 369.32 464.46 387.83 481.04 402.07 C 487.73 393.79 495.93 386.99 503.83 379.81 C 510.89 367.70 502.39 353.13 507.02 340.31 C 497.98 340.04 488.91 339.98 479.90 340.77 M 251.42 344.31 C 239.91 354.24 232.36 367.88 221.42 378.46 C 217.05 382.22 219.67 388.50 217.39 393.16 C 205.08 397.63 205.98 415.59 192.41 418.38 C 188.17 423.49 185.31 430.08 181.95 435.95 C 200.19 425.67 216.14 409.58 236.07 403.19 C 243.30 422.48 245.52 445.40 249.70 463.68 C 250.99 457.69 255.60 450.39 254.43 443.62 C 247.39 431.52 259.39 422.17 255.35 408.97 C 256.41 404.15 263.44 401.34 262.51 395.54 C 262.03 379.69 267.42 363.92 264.90 348.20 C 257.81 353.45 256.16 345.30 251.42 344.31 M 315.60 344.41 C 313.09 354.07 299.21 342.83 303.44 356.20 C 307.37 373.29 300.92 394.49 313.78 408.24 C 311.83 416.78 314.33 427.15 317.45 433.65 C 311.48 443.43 315.68 455.71 320.11 464.01 C 323.15 443.58 326.38 422.87 332.95 403.20 C 352.98 409.34 368.54 426.12 386.86 436.12 C 382.94 430.49 381.61 422.20 375.92 418.04 C 364.38 415.43 363.51 402.07 355.82 395.16 C 346.60 392.95 353.76 379.94 345.24 375.79 C 334.31 366.59 327.97 349.97 315.60 344.41 M 216.38 351.59 C 196.47 360.13 182.42 378.42 161.96 383.78 C 157.13 382.76 149.65 383.37 148.31 387.43 C 160.76 387.97 173.52 381.41 186.06 382.80 C 186.79 395.30 181.38 408.25 181.10 421.00 C 190.00 416.89 181.43 406.01 187.98 400.81 C 193.75 382.33 211.32 370.08 217.79 351.21 C 217.44 351.30 216.73 351.49 216.38 351.59 M 351.92 351.38 C 357.45 370.56 378.88 386.35 383.78 407.04 C 382.76 411.87 383.37 419.34 387.43 420.69 C 387.97 408.24 381.41 395.48 382.80 382.94 C 395.30 382.21 408.25 387.62 421.00 387.90 C 416.89 379.00 406.01 387.57 400.81 381.02 C 382.56 375.29 370.39 358.19 351.92 351.38 M 185.45 358.22 C 180.35 359.96 184.61 367.06 188.61 365.78 C 193.13 364.29 189.87 356.07 185.45 358.22 M 380.43 358.23 C 375.95 360.61 379.19 368.96 383.81 364.89 C 388.32 362.63 384.72 356.30 380.43 358.23 M 173.30 365.15 C 169.34 367.44 170.87 373.18 175.29 373.74 C 179.32 373.14 178.21 363.95 173.30 365.15 M 393.43 365.27 C 389.49 367.32 391.26 376.55 395.81 372.73 C 400.29 371.65 397.61 363.46 393.43 365.27 M 161.31 371.26 C 156.36 372.01 159.59 382.32 163.92 377.98 C 168.08 376.78 165.03 369.47 161.31 371.26 M 405.33 371.12 C 400.81 373.92 404.08 379.90 408.83 378.87 C 410.85 375.46 410.29 369.95 405.33 371.12 M 205.20 378.09 C 199.36 380.81 207.15 389.61 210.38 384.24 C 212.89 380.58 208.54 377.89 205.20 378.09 M 362.26 378.31 C 357.83 378.03 356.34 383.97 360.34 385.81 C 365.38 387.57 368.52 377.55 362.26 378.31 M 284.09 378.96 C 276.28 399.41 278.39 422.69 268.14 441.20 C 264.28 444.17 259.02 449.05 261.73 453.64 C 269.23 444.65 275.61 431.24 284.86 424.10 C 293.92 432.04 299.72 444.84 307.27 453.64 C 310.59 447.32 302.09 443.40 298.72 438.63 C 300.08 430.59 290.80 425.72 293.57 417.42 C 289.57 405.02 290.84 389.69 284.09 378.96 M 178.14 386.79 C 179.13 394.46 185.80 387.59 178.14 386.79 M 388.40 387.34 C 382.50 394.63 395.94 386.53 388.40 387.34 M 198.37 391.28 C 191.75 391.55 197.81 401.40 202.19 397.36 C 206.61 395.12 201.68 390.10 198.37 391.28 M 368.43 391.31 C 361.09 392.65 368.15 402.33 372.34 396.49 C 375.86 393.41 371.80 390.40 368.43 391.31 M 174.51 393.58 C 158.71 399.14 139.58 397.22 125.27 405.90 C 138.69 406.34 152.97 402.22 166.82 402.18 C 165.84 415.59 163.85 429.35 162.57 442.45 C 165.24 445.60 165.82 437.10 166.67 434.82 C 171.75 422.16 172.58 403.76 174.51 393.58 M 393.90 393.48 C 398.04 407.96 397.47 429.35 405.90 443.73 C 406.34 430.31 402.22 416.03 402.18 402.18 C 416.00 402.59 430.41 406.31 443.77 405.90 C 429.16 397.20 410.04 398.91 393.90 393.48 M 192.44 403.25 C 190.53 404.90 188.27 409.55 192.46 409.60 C 200.31 413.12 198.73 400.76 192.44 403.25 M 374.34 403.25 C 368.82 403.40 370.97 413.26 376.54 409.60 C 381.45 409.76 377.71 401.60 374.34 403.25 M 268.17 404.14 C 264.11 407.34 267.23 414.04 272.16 411.13 C 276.76 408.55 271.95 403.59 268.17 404.14 M 299.32 404.28 C 294.75 404.49 293.18 410.81 298.25 411.73 C 303.85 413.37 304.01 403.92 299.32 404.28 M 155.20 406.57 C 134.29 409.38 112.02 410.01 93.09 420.33 C 96.67 429.70 97.13 440.58 89.28 448.27 C 81.26 455.21 84.19 466.98 89.76 474.42 C 97.97 477.87 89.18 460.91 97.69 462.06 C 100.47 465.30 103.70 468.53 106.94 471.31 C 108.09 479.82 91.13 471.02 94.58 479.24 C 102.02 484.81 113.78 487.74 120.73 479.72 C 128.42 471.87 139.30 472.33 148.67 475.91 C 159.07 456.22 160.36 433.19 162.36 411.45 C 163.98 406.12 158.45 406.45 155.20 406.57 M 413.07 406.59 C 409.49 406.46 404.98 406.85 406.52 412.19 C 409.14 433.64 409.85 456.47 420.33 475.91 C 429.70 472.33 440.58 471.87 448.27 479.72 C 455.21 487.74 466.98 484.81 474.42 479.24 C 477.87 471.02 460.91 479.82 462.06 471.31 C 465.30 468.53 468.53 465.30 471.31 462.06 C 479.82 460.91 471.02 477.87 479.24 474.42 C 484.81 466.98 487.74 455.21 479.72 448.27 C 471.87 440.58 472.33 429.70 475.91 420.33 C 456.72 410.05 434.27 408.99 413.07 406.59 M 232.45 408.31 C 204.99 425.40 174.03 441.71 158.97 471.92 C 156.67 475.30 161.78 473.66 162.59 471.68 C 178.70 451.22 201.38 437.05 225.11 427.04 C 235.58 450.33 241.44 476.32 238.46 501.87 C 238.66 504.01 237.16 507.70 240.69 506.68 C 251.34 474.62 241.98 437.84 232.45 408.31 M 335.88 407.93 C 326.98 439.72 317.76 474.21 328.32 506.69 C 331.84 507.69 330.34 504.00 330.54 501.86 C 327.73 476.33 333.31 450.32 343.89 427.04 C 366.43 436.71 388.32 449.70 404.06 468.92 C 405.98 470.93 407.49 474.13 410.71 473.98 C 396.48 442.17 364.02 425.49 335.88 407.93 M 69.19 414.82 C 61.83 417.10 51.52 423.43 52.88 431.18 C 64.31 428.53 73.84 438.83 68.09 449.75 C 77.63 451.93 88.78 442.38 89.72 432.58 C 91.88 421.28 78.83 413.32 69.19 414.82 M 495.41 414.58 C 490.16 416.51 483.96 417.82 481.10 423.19 C 473.56 435.41 488.14 452.55 500.91 449.75 C 495.16 438.83 504.69 428.53 516.12 431.18 C 517.24 422.40 504.24 414.12 495.41 414.58 M 264.27 419.43 C 261.28 420.72 263.82 429.26 268.42 425.80 C 274.15 424.38 268.41 416.40 264.27 419.43 M 300.65 419.18 C 298.77 420.91 296.38 423.94 299.84 425.44 C 306.71 430.78 308.88 415.11 300.65 419.18 M 284.18 430.35 C 277.66 435.43 292.11 433.56 284.18 430.35 M 260.30 431.22 C 255.94 433.66 259.27 438.38 263.00 438.76 C 267.35 437.25 264.82 430.07 260.30 431.22 M 307.17 431.33 C 301.37 430.92 304.07 442.24 308.62 437.58 C 312.49 436.36 310.69 430.65 307.17 431.33 M 284.19 439.39 C 275.61 454.16 262.86 466.55 257.03 482.98 C 267.76 474.79 274.46 460.94 284.14 451.02 C 294.57 459.88 300.93 474.93 311.96 482.98 C 305.98 466.59 293.45 453.38 284.19 439.39 M 217.94 442.33 C 198.80 451.88 180.74 464.45 166.93 481.04 C 175.21 487.73 182.01 495.93 189.19 503.83 C 201.30 510.89 215.87 502.39 228.69 507.02 C 229.74 488.92 227.99 470.74 222.94 453.30 C 221.91 449.72 222.27 442.88 217.94 442.33 M 349.37 442.33 C 341.55 462.76 339.19 485.21 340.23 507.03 C 352.81 503.04 366.18 509.78 378.53 504.66 C 387.16 497.90 391.96 486.90 402.09 481.81 C 388.67 464.38 369.34 450.45 349.37 442.33 M 284.18 457.61 C 269.00 475.16 252.15 493.09 245.16 515.81 C 255.79 519.95 262.61 528.93 262.50 540.51 C 261.72 550.99 274.01 554.44 281.97 556.86 C 286.22 551.07 273.89 548.59 276.58 542.42 C 282.03 542.58 287.75 541.60 293.05 543.03 C 293.78 548.70 283.05 551.35 287.04 556.85 C 295.32 554.49 307.62 550.63 306.59 539.83 C 306.65 528.43 313.44 519.93 323.84 515.81 C 316.58 493.24 300.13 474.10 284.18 457.61 M 136.52 479.37 C 126.65 480.07 117.07 491.38 119.25 500.91 C 130.99 494.84 139.99 505.48 138.05 516.86 C 159.43 514.54 159.24 477.13 136.52 479.37 M 427.60 479.42 C 408.49 484.03 412.39 514.31 430.95 516.86 C 432.15 510.76 430.42 502.07 438.26 500.12 C 442.20 497.14 449.00 503.88 450.67 498.84 C 448.99 487.99 439.54 477.09 427.60 479.42 M 159.93 485.34 C 162.95 496.62 152.64 513.84 167.98 521.18 C 175.47 528.52 173.03 513.82 178.80 514.19 C 186.49 518.55 205.23 520.53 193.93 532.09 C 211.05 543.34 219.64 522.52 230.98 515.25 C 219.49 506.07 202.60 514.54 190.14 506.87 C 178.25 502.29 172.60 488.19 159.93 485.34 M 408.31 485.48 C 395.08 489.47 388.99 504.61 375.48 508.53 C 363.58 513.86 348.44 506.75 337.95 515.24 C 349.32 521.47 355.39 541.22 372.30 533.70 C 379.12 532.08 366.16 524.31 373.26 521.24 C 381.25 519.92 394.42 507.09 395.57 522.45 C 405.44 522.64 414.06 509.19 408.47 499.91 C 406.35 495.40 412.08 487.56 408.31 485.48 M 236.31 521.64 C 222.92 523.55 215.94 541.66 224.11 552.03 C 229.82 542.41 244.11 541.92 248.27 553.89 C 262.55 546.34 254.13 516.77 236.31 521.64 M 326.30 521.50 C 312.23 523.84 309.07 547.75 320.73 553.89 C 324.88 541.95 339.16 542.39 344.87 552.01 C 355.14 539.54 342.37 518.36 326.30 521.50 Z" />
<path fill="#000000" opacity="1.00" d=" M 283.46 36.39 C 292.94 39.28 301.52 47.25 311.53 50.40 C 319.27 52.54 315.57 62.54 311.21 66.31 C 304.41 79.81 294.54 91.14 284.86 102.63 C 273.42 91.72 264.43 78.17 256.54 64.46 C 253.33 61.16 250.34 53.27 256.11 51.08 C 265.65 47.00 274.74 42.01 283.46 36.39 M 284.15 43.55 C 275.50 47.04 265.82 50.56 258.98 56.22 C 263.19 70.74 273.53 84.24 284.85 93.74 C 295.41 82.99 306.93 70.50 309.88 55.43 C 301.88 50.67 293.08 46.29 284.15 43.55 Z" />
<path fill="#000000" opacity="1.00" d=" M 139.45 99.36 C 142.74 98.21 146.22 100.69 147.40 103.71 C 151.63 120.78 155.93 137.90 155.57 155.66 C 137.63 155.87 120.21 151.72 103.06 147.08 C 95.73 143.40 101.00 135.25 102.96 129.88 C 107.44 122.73 104.03 108.16 115.16 107.02 C 123.55 105.45 131.49 102.33 139.45 99.36 M 136.58 105.59 C 127.58 110.08 112.83 109.71 110.88 121.88 C 109.45 128.53 102.99 135.92 106.67 142.23 C 119.94 148.22 134.93 150.48 149.47 149.61 C 150.84 136.20 147.83 122.89 143.95 110.13 C 142.98 107.14 140.58 103.04 136.58 105.59 Z" />
<path fill="#000000" opacity="1.00" d=" M 426.45 99.25 C 437.17 101.32 447.72 106.10 458.61 108.50 C 464.00 114.84 462.87 124.75 466.90 132.10 C 469.13 136.79 472.35 144.11 465.94 147.08 C 448.77 151.73 431.30 155.82 413.34 155.57 C 413.73 141.75 414.86 127.87 419.19 114.68 C 420.57 109.27 419.98 101.39 426.45 99.25 M 428.52 105.14 C 419.79 117.42 419.03 134.57 419.39 149.47 C 434.11 150.42 449.75 148.36 462.92 141.74 C 464.22 132.57 458.09 123.00 454.81 114.19 C 446.35 110.57 437.69 106.44 428.52 105.14 Z" />
<path fill="#000000" opacity="1.00" d=" M 263.96 234.98 C 269.48 238.36 272.92 247.33 271.07 252.87 C 267.14 249.25 262.51 241.36 263.96 234.98 Z" />
<path fill="#000000" opacity="1.00" d=" M 304.44 235.33 C 307.62 239.14 301.30 250.48 297.98 252.77 C 296.05 247.08 299.29 239.00 304.44 235.33 Z" />
<path fill="#000000" opacity="1.00" d=" M 53.77 253.27 C 72.51 256.41 87.64 272.68 102.63 284.14 C 88.57 296.96 72.22 311.76 53.57 315.85 C 46.76 306.22 42.35 294.21 36.11 284.14 C 43.21 274.63 46.45 262.11 53.77 253.27 M 55.43 259.12 C 50.67 267.11 46.29 275.92 43.55 284.85 C 47.04 293.50 50.56 303.18 56.22 310.02 C 70.74 305.81 84.24 295.47 93.74 284.15 C 82.99 273.59 70.50 262.06 55.43 259.12 Z" />
<path fill="#000000" opacity="1.00" d=" M 509.80 253.34 C 524.05 253.07 523.53 275.52 532.89 284.14 C 528.34 293.47 521.99 302.29 518.26 312.23 C 515.73 319.41 506.28 315.11 502.69 311.21 C 489.19 304.41 477.86 294.54 466.37 284.86 C 478.64 271.79 494.45 262.44 509.80 253.34 M 510.45 259.33 C 497.21 264.97 484.11 273.71 475.26 284.85 C 486.01 295.41 498.50 306.93 513.57 309.88 C 518.33 301.88 522.71 293.08 525.45 284.15 C 521.16 275.91 518.93 261.86 510.45 259.33 Z" />
<path fill="#000000" opacity="1.00" d=" M 236.31 263.47 C 242.50 263.66 248.23 266.88 253.18 270.35 C 249.08 274.43 234.06 268.04 236.31 263.47 Z" />
<path fill="#000000" opacity="1.00" d=" M 331.31 263.49 C 338.87 265.63 318.29 275.58 315.88 270.32 C 320.42 266.93 325.67 264.33 331.31 263.49 Z" />
<path fill="#000000" opacity="1.00" d=" M 247.63 297.49 C 262.03 295.63 238.28 309.14 235.32 304.41 C 238.01 300.47 243.11 298.55 247.63 297.49 Z" />
<path fill="#000000" opacity="1.00" d=" M 316.66 297.32 C 323.00 296.86 330.66 299.38 334.03 305.07 C 327.94 306.39 317.86 301.73 316.66 297.32 Z" />
<path fill="#000000" opacity="1.00" d=" M 270.35 315.82 C 273.72 321.15 269.59 330.63 263.93 334.03 C 262.44 327.54 267.14 321.04 270.35 315.82 Z" />
<path fill="#000000" opacity="1.00" d=" M 297.18 316.42 C 301.91 318.18 306.35 327.84 305.04 334.02 C 299.35 330.54 297.06 322.79 297.18 316.42 Z" />
<path fill="#000000" opacity="1.00" d=" M 147.99 413.59 C 150.54 413.36 153.09 413.33 155.66 413.43 C 155.72 431.55 151.87 449.37 146.73 466.58 C 138.93 475.12 128.02 462.29 118.73 462.80 C 102.48 462.36 107.03 441.96 100.08 431.80 C 95.45 421.08 109.79 419.92 116.86 418.73 C 126.88 415.00 137.47 414.72 147.99 413.59 M 133.86 419.61 C 124.37 422.10 112.62 421.64 105.14 428.51 C 106.75 437.72 110.29 447.20 114.82 455.22 C 124.07 457.29 141.00 471.24 144.68 456.62 C 148.40 444.59 150.60 432.13 149.61 419.53 C 144.38 419.20 139.09 419.18 133.86 419.61 Z" />
<path fill="#000000" opacity="1.00" d=" M 413.43 413.34 C 431.55 413.28 449.37 417.13 466.58 422.27 C 475.12 430.07 462.29 440.98 462.80 450.27 C 462.36 466.52 441.96 461.97 431.80 468.92 C 420.67 473.57 420.00 458.55 418.55 451.38 C 414.33 439.18 413.97 426.12 413.43 413.34 M 419.53 419.39 C 418.77 434.21 420.26 450.62 427.87 463.42 C 437.11 463.06 447.02 458.55 455.22 454.18 C 457.29 444.93 471.24 428.00 456.62 424.32 C 444.59 420.60 432.13 418.40 419.53 419.39 Z" />
<path fill="#000000" opacity="1.00" d=" M 284.14 466.37 C 296.96 480.43 311.76 496.78 315.85 515.43 C 306.50 522.35 294.49 525.92 284.86 532.89 C 275.53 528.34 266.71 521.99 256.77 518.26 C 249.58 515.73 253.88 506.28 257.79 502.69 C 264.59 489.19 274.46 477.86 284.14 466.37 M 284.15 475.26 C 273.59 486.01 262.06 498.50 259.12 513.57 C 267.11 518.33 275.92 522.71 284.85 525.45 C 293.50 521.96 303.18 518.44 310.02 512.78 C 305.81 498.26 295.47 484.76 284.15 475.26 Z" />
</svg>
