<?xml version="1.0" encoding="UTF-8" ?>
<!DOCTYPE svg PUBLIC "-//W3C//DTD SVG 1.1//EN" "http://www.w3.org/Graphics/SVG/1.1/DTD/svg11.dtd">
<svg width="707pt" height="739pt" viewBox="0 0 707 739" version="1.1" xmlns="http://www.w3.org/2000/svg">
<path fill="#000000" opacity="1.00" d=" M 353.05 0.00 L 353.95 0.00 C 394.22 8.07 426.31 36.60 451.46 67.57 C 490.29 58.19 533.90 51.81 570.60 71.30 C 600.01 100.47 606.92 143.76 610.61 183.22 C 647.35 197.61 685.32 218.94 704.04 255.18 C 711.06 296.14 692.28 336.07 670.62 369.71 C 692.59 402.97 710.83 443.00 704.02 483.71 C 685.56 520.28 647.13 541.18 610.57 556.01 C 607.78 595.62 599.41 638.32 570.64 667.72 C 534.08 687.08 490.20 680.89 451.50 671.48 C 426.08 702.16 394.29 730.99 353.96 739.00 L 353.04 739.00 C 312.71 730.99 280.92 702.16 255.50 671.48 C 216.80 680.89 172.92 687.08 136.36 667.72 C 107.59 638.32 99.22 595.62 96.43 556.01 C 59.87 541.18 21.44 520.28 2.98 483.71 C -3.83 443.00 14.41 402.97 36.38 369.71 C 14.72 336.07 -4.06 296.14 2.96 255.18 C 21.68 218.94 59.65 197.61 96.39 183.22 C 100.08 143.76 106.99 100.47 136.40 71.30 C 173.09 51.81 216.71 58.19 255.54 67.57 C 280.69 36.60 312.78 8.07 353.05 0.00 M 341.32 8.37 C 338.82 10.46 335.54 11.99 333.63 14.58 C 335.07 17.12 346.03 9.97 341.32 8.37 M 365.07 8.01 C 362.73 11.88 370.05 15.17 373.63 15.30 C 372.01 11.93 367.90 10.36 365.07 8.01 M 351.42 15.32 C 343.35 20.89 368.77 15.12 351.42 15.32 M 330.58 29.35 C 325.11 29.42 319.36 33.48 318.10 38.92 C 325.93 48.08 339.14 43.87 346.02 36.40 C 347.62 28.27 335.30 29.13 330.58 29.35 M 367.79 29.50 C 348.30 35.54 383.43 54.07 388.72 38.23 C 385.81 29.97 375.57 27.83 367.79 29.50 M 292.52 34.64 C 287.54 34.89 289.48 45.24 293.59 41.58 C 297.82 40.49 292.90 34.42 292.52 34.64 M 413.29 34.02 C 406.77 45.78 424.30 40.14 413.29 34.02 M 283.47 42.34 C 279.31 43.51 281.37 49.78 281.87 53.05 C 285.57 60.54 291.67 42.10 285.03 46.08 C 279.27 49.60 290.05 39.96 283.47 42.34 M 421.21 41.90 C 420.71 44.12 426.68 48.48 421.97 46.08 C 415.79 42.10 420.65 59.24 424.76 53.71 C 426.26 49.69 427.83 41.40 421.21 41.90 M 353.15 43.39 C 350.77 44.36 348.83 46.14 347.10 48.01 C 353.73 52.86 365.54 46.68 353.15 43.39 M 293.34 46.94 C 303.60 138.25 326.43 230.90 337.42 321.88 C 296.41 240.34 257.45 158.08 216.12 76.86 C 215.53 72.44 207.69 73.70 210.98 78.00 C 257.70 170.43 302.98 265.76 350.11 357.77 C 332.68 259.01 315.63 160.28 299.34 61.40 C 296.55 57.10 300.34 46.48 293.34 46.94 M 306.73 47.39 C 297.57 48.26 304.97 61.08 306.21 66.77 C 324.53 69.78 324.45 40.75 306.73 47.39 M 392.67 47.40 C 379.14 50.15 390.25 70.88 401.21 66.26 C 404.78 57.42 407.98 42.34 392.67 47.40 M 410.32 47.24 C 392.24 150.84 375.05 254.19 356.89 357.76 C 403.99 265.86 449.29 170.40 496.02 77.99 C 499.24 74.28 492.25 72.20 491.27 76.20 C 449.21 157.35 411.14 241.44 368.87 321.82 C 382.87 231.28 400.50 141.46 414.72 50.93 C 415.38 47.99 413.10 45.92 410.32 47.24 M 276.41 52.37 C 272.43 54.91 272.26 60.29 269.91 64.06 C 273.98 62.18 276.97 54.11 276.41 52.37 M 429.96 51.95 C 431.50 56.39 432.68 61.59 437.09 64.06 C 434.64 60.08 434.48 54.32 429.96 51.95 M 287.69 53.52 C 285.96 54.92 284.10 56.13 282.18 57.25 C 294.28 123.39 305.51 189.74 317.09 256.04 C 285.64 196.83 258.10 135.29 227.65 75.41 C 224.80 75.24 221.74 74.82 219.05 75.99 C 258.24 153.02 295.24 232.63 334.15 308.84 C 319.26 226.94 305.17 144.81 291.19 62.73 C 289.45 61.08 292.52 50.77 287.69 53.52 M 417.07 53.24 C 403.01 138.61 387.74 223.80 372.75 308.98 C 411.88 232.40 448.64 153.12 487.96 75.99 C 485.25 74.85 482.20 75.22 479.36 75.41 C 448.92 135.26 421.33 196.84 389.94 255.97 C 401.90 189.78 413.08 123.34 424.88 57.29 C 422.07 56.34 420.14 52.72 417.07 53.24 M 338.37 56.31 C 329.52 56.16 326.84 66.51 322.19 72.03 C 331.12 79.55 346.09 80.63 353.83 70.30 C 360.98 81.77 376.34 78.87 384.77 72.03 C 381.10 58.50 365.22 50.54 353.84 60.64 C 349.43 57.52 343.93 55.60 338.37 56.31 M 278.34 59.13 C 272.43 64.52 265.63 68.23 260.73 74.76 C 262.40 69.04 267.24 65.07 269.84 59.81 C 264.09 62.52 262.48 69.49 258.44 73.87 C 251.64 73.70 245.74 69.75 239.08 68.82 C 242.16 74.24 251.83 71.50 255.17 76.71 C 247.16 74.20 239.23 75.06 231.06 74.20 C 242.34 97.62 252.49 121.58 265.61 144.07 C 274.68 143.11 284.18 140.51 291.97 135.56 C 289.15 110.15 284.19 82.26 278.34 59.13 M 427.02 59.20 C 424.32 84.76 416.34 109.60 415.13 135.30 C 422.37 140.87 432.50 142.87 441.38 144.07 C 454.53 121.60 464.63 97.60 475.94 74.20 C 467.77 75.05 459.86 74.22 451.84 76.69 C 455.37 72.05 464.93 73.71 467.81 68.96 C 461.15 69.60 455.33 73.80 448.56 73.87 C 444.51 69.49 442.92 62.52 437.16 59.81 C 439.76 65.07 444.60 69.04 446.27 74.76 C 440.78 68.49 434.20 62.62 427.02 59.20 M 208.06 62.29 C 202.13 63.52 209.73 65.55 206.47 69.03 C 214.60 72.65 209.98 63.62 208.06 62.29 M 498.28 62.14 C 490.50 74.03 507.23 65.59 498.28 62.14 M 216.94 63.49 C 210.31 65.87 226.52 67.23 217.86 67.35 C 214.78 72.21 221.47 75.94 225.79 73.62 C 225.39 69.45 222.52 61.54 216.94 63.49 M 486.24 63.56 C 474.62 70.26 488.78 80.08 489.82 68.55 C 480.80 66.78 498.48 62.89 486.24 63.56 M 229.15 67.01 C 231.51 71.31 236.33 73.20 241.07 73.57 C 237.91 70.37 233.33 68.60 229.15 67.01 M 476.41 67.35 C 473.11 69.31 469.10 70.39 466.34 73.07 C 468.02 75.10 479.73 68.61 476.41 67.35 M 151.09 70.10 C 150.45 74.62 161.61 74.85 160.94 70.11 C 157.66 70.40 154.37 70.39 151.09 70.10 M 546.09 70.10 C 545.45 74.62 556.60 74.85 555.94 70.11 C 552.66 70.40 549.37 70.39 546.09 70.10 M 177.01 78.59 C 170.29 81.19 163.26 85.55 161.20 92.92 C 169.62 101.46 187.14 92.77 187.49 81.36 C 184.80 78.85 180.55 78.47 177.01 78.59 M 526.93 78.63 C 523.78 78.97 517.03 80.19 520.32 84.61 C 522.85 94.04 538.49 100.58 545.79 92.89 C 543.14 85.28 535.16 78.42 526.93 78.63 M 204.97 80.36 C 198.53 81.63 190.72 87.54 194.90 94.90 C 198.38 101.82 209.33 100.47 213.81 95.89 C 211.18 91.05 209.92 82.24 204.97 80.36 M 500.47 80.46 C 497.39 85.17 495.26 90.80 493.19 95.90 C 497.71 100.46 508.53 101.80 512.11 94.95 C 516.53 87.58 506.92 79.90 500.47 80.46 M 147.04 81.48 C 144.42 82.13 142.86 84.62 142.24 87.09 C 145.42 87.29 154.02 80.00 147.04 81.48 M 309.24 81.05 C 309.59 88.48 310.40 96.61 311.91 103.63 C 319.03 103.54 327.26 96.01 327.51 88.43 C 326.03 79.89 315.74 80.66 309.24 81.05 M 387.63 81.42 C 371.09 83.17 384.58 106.47 395.64 103.19 C 395.30 94.34 404.54 75.66 387.63 81.42 M 556.59 81.39 C 558.58 84.11 561.31 86.60 564.76 87.09 C 564.12 83.26 560.44 80.53 556.59 81.39 M 131.18 84.09 C 129.25 87.08 129.28 90.88 128.35 94.24 C 133.55 94.86 134.35 84.55 131.18 84.09 M 574.25 84.06 C 574.01 87.58 573.38 94.24 578.66 94.28 C 576.97 91.16 578.44 84.31 574.25 84.06 M 341.38 94.46 C 332.58 92.87 335.59 104.50 328.51 106.55 C 319.55 112.19 333.66 112.68 337.33 115.69 C 343.74 122.11 351.24 109.50 357.82 115.20 C 365.96 121.56 373.61 112.15 381.90 110.87 C 375.05 104.15 371.10 89.89 358.10 94.63 C 352.75 99.74 347.58 91.51 341.38 94.46 M 148.46 101.26 C 138.20 102.05 125.99 112.73 130.82 122.61 C 141.40 126.33 158.21 108.73 148.46 101.26 M 557.23 101.03 C 550.48 111.78 567.01 127.38 577.00 121.83 C 579.82 109.76 567.32 102.34 557.23 101.03 M 163.10 105.67 C 160.64 106.99 160.09 110.41 159.09 112.86 C 166.48 113.18 174.37 102.08 163.10 105.67 M 186.45 105.32 C 180.16 107.98 173.09 112.71 172.20 120.07 C 157.35 118.65 147.71 133.47 152.81 147.14 C 163.64 149.58 177.13 141.61 177.76 128.69 C 190.04 131.04 201.97 123.01 203.79 110.25 C 198.45 107.78 192.31 105.53 186.45 105.32 M 517.45 105.40 C 512.73 107.07 507.51 107.59 503.21 110.25 C 505.05 123.00 516.76 130.86 529.20 128.63 C 529.94 141.37 543.53 149.33 554.16 147.15 C 559.47 133.74 549.79 118.59 535.17 120.16 C 533.45 112.29 525.37 105.27 517.45 105.40 M 537.10 105.43 C 539.73 108.87 542.88 113.70 547.94 112.77 C 547.19 107.01 542.67 104.00 537.10 105.43 M 220.15 110.51 C 214.34 113.43 205.55 118.99 209.10 126.68 C 213.88 132.89 224.84 134.13 230.77 129.96 C 228.24 123.58 224.20 115.15 220.15 110.51 M 486.19 110.30 C 483.04 116.89 478.31 123.10 476.23 129.93 C 482.11 134.26 493.11 132.86 497.90 126.68 C 501.45 118.79 492.28 113.00 486.19 110.30 M 318.39 121.32 C 310.24 124.50 320.64 137.35 317.24 144.78 C 321.55 146.96 326.16 140.75 329.16 138.11 C 336.57 131.14 327.33 119.19 318.39 121.32 M 385.35 121.27 C 368.20 122.72 376.87 146.87 389.72 144.76 C 386.64 137.02 398.96 120.02 385.35 121.27 M 134.39 131.41 C 119.03 134.03 125.51 148.24 136.91 152.00 C 145.59 148.29 146.65 130.02 134.39 131.41 M 570.35 131.29 C 559.39 133.00 562.80 149.61 570.87 151.97 C 575.65 148.90 579.53 144.25 582.98 139.85 C 581.71 134.85 575.34 131.44 570.35 131.29 M 107.04 134.12 C 103.62 137.84 109.74 141.90 112.23 140.14 C 115.03 135.06 109.01 137.18 107.04 134.12 M 345.32 134.45 C 339.56 138.67 336.52 146.23 331.44 151.08 C 343.68 162.93 363.30 162.97 375.56 151.07 C 368.20 140.77 360.87 128.55 345.32 134.45 M 598.55 134.50 C 598.52 138.35 592.22 134.43 594.36 138.65 C 595.40 145.15 605.43 134.67 598.55 134.50 M 204.29 138.28 C 199.13 139.61 196.02 144.20 193.22 148.36 C 187.65 150.60 179.16 152.63 178.53 159.79 C 180.84 165.45 178.68 171.20 177.92 176.93 C 187.53 174.43 199.69 173.85 202.59 162.42 C 214.37 163.47 221.46 151.59 223.57 142.25 C 216.44 144.02 210.72 138.39 204.29 138.28 M 500.17 138.20 C 496.74 144.26 477.91 138.40 484.86 147.18 C 488.96 155.26 493.84 163.24 504.26 162.40 C 507.49 173.36 519.16 175.10 529.05 176.93 C 528.34 171.19 526.15 165.46 528.47 159.79 C 527.84 152.63 519.35 150.61 513.78 148.35 C 510.65 143.67 506.54 137.69 500.17 138.20 M 117.24 142.36 C 115.91 143.23 115.76 145.01 116.23 146.40 C 180.97 212.70 249.11 275.32 313.93 341.06 C 231.94 299.10 151.41 254.44 69.11 213.00 C 66.82 211.02 64.63 213.77 64.03 215.94 C 157.75 264.36 250.75 313.86 344.21 362.83 C 302.53 321.45 259.86 280.81 218.43 239.56 C 183.57 208.92 151.93 171.53 117.24 142.36 M 588.42 142.29 C 513.31 216.22 437.88 288.83 362.80 362.79 C 456.22 313.85 549.28 264.32 643.02 215.95 C 642.28 214.01 640.21 210.72 637.86 213.07 C 555.57 254.48 475.13 299.26 393.05 341.05 C 457.90 275.36 526.03 212.73 590.78 146.41 C 591.43 144.82 590.71 141.36 588.42 142.29 M 289.67 143.63 C 283.02 148.07 274.06 146.68 268.24 152.05 C 273.41 163.74 279.83 175.20 285.86 186.14 C 289.50 178.80 294.92 182.11 300.65 181.34 C 297.25 168.90 297.83 155.74 294.70 143.18 C 293.44 143.29 290.92 143.51 289.67 143.63 M 412.46 143.24 C 408.69 155.63 409.53 169.07 406.39 181.30 C 413.12 180.19 416.52 182.43 421.84 185.90 C 426.48 174.24 435.36 163.33 438.37 151.41 C 430.08 148.41 421.42 144.40 412.46 143.24 M 105.28 144.18 C 101.48 147.85 106.40 154.55 110.35 155.97 C 117.54 157.23 109.89 140.23 107.87 148.83 C 103.74 153.13 109.43 142.78 105.28 144.18 M 600.05 144.19 C 602.85 156.05 596.63 140.57 594.03 150.45 C 591.87 165.17 610.64 145.79 600.05 144.19 M 237.38 147.29 C 218.48 155.18 237.55 176.06 249.84 167.45 C 245.83 161.39 243.77 149.71 237.38 147.29 M 467.46 147.33 C 463.99 154.01 460.11 160.69 457.09 167.50 C 460.61 170.10 466.92 168.26 471.35 167.59 C 482.11 164.30 477.42 146.78 467.46 147.33 M 114.34 151.62 C 110.01 158.83 117.28 163.87 121.72 168.35 C 167.45 210.73 211.73 254.98 256.20 298.79 C 196.82 269.15 138.94 236.30 79.83 206.16 C 77.64 206.95 71.19 208.00 72.97 211.21 C 149.71 251.70 226.53 292.12 302.96 333.07 C 240.51 272.76 176.98 209.14 114.34 151.62 M 591.36 151.14 C 529.20 211.99 466.00 271.98 404.07 333.07 C 480.39 291.92 557.18 251.55 634.05 211.26 C 635.68 208.07 628.89 206.19 626.45 206.40 C 567.87 237.11 509.78 268.95 450.80 298.83 C 496.47 253.51 542.52 208.42 589.26 164.32 C 593.98 161.91 595.70 154.25 591.36 151.14 M 160.31 155.25 C 155.73 156.74 150.73 158.96 147.91 163.00 C 152.72 168.52 157.99 173.75 163.15 178.93 C 170.44 174.78 173.32 153.86 160.31 155.25 M 543.60 155.38 C 533.68 158.14 537.37 174.71 543.94 179.03 C 548.92 173.61 554.28 168.54 559.12 163.00 C 555.48 158.67 549.45 154.71 543.60 155.38 M 104.19 158.44 C 102.04 162.73 106.45 166.05 106.46 170.34 C 108.38 170.30 107.37 158.07 104.19 158.44 M 601.27 158.17 C 600.41 161.69 597.95 167.96 600.82 170.56 C 599.82 166.17 606.82 160.60 601.27 158.17 M 110.53 162.43 C 107.55 169.52 104.85 176.85 105.92 184.70 C 100.09 184.40 106.91 171.42 103.17 167.75 C 101.14 174.14 103.84 180.76 102.34 187.19 C 96.82 189.80 90.65 190.72 85.10 193.27 C 89.26 196.37 98.10 187.82 101.61 190.52 C 93.47 192.50 88.37 199.09 80.80 202.12 C 102.82 215.46 126.01 227.11 149.02 238.77 C 156.86 234.10 163.05 224.88 165.94 216.23 C 148.89 197.60 128.55 178.03 110.53 162.43 M 322.69 162.30 C 321.56 168.54 324.07 181.22 326.21 188.82 C 332.72 187.76 340.22 182.89 341.51 175.82 C 340.96 166.70 331.87 159.65 322.69 162.30 M 377.59 162.45 C 359.50 163.90 365.18 190.57 381.42 188.32 C 380.08 180.36 393.30 158.02 377.59 162.45 M 595.24 162.25 C 577.46 180.49 557.78 197.17 541.02 216.23 C 543.78 225.05 550.10 234.10 557.98 238.77 C 581.24 227.77 603.24 214.58 626.15 202.89 C 619.61 198.18 613.25 193.07 605.39 190.52 C 608.88 187.84 617.76 196.31 621.90 193.31 C 616.26 190.38 609.63 189.95 604.16 186.63 C 603.67 180.37 605.58 174.08 603.95 167.88 C 599.70 171.23 606.97 183.94 601.11 184.81 C 600.10 178.33 601.15 165.78 595.24 162.25 M 222.08 174.63 C 207.22 179.74 204.83 193.22 207.70 206.90 C 225.57 207.09 239.82 196.37 242.66 179.26 C 235.25 180.10 229.13 173.64 222.08 174.63 M 481.14 174.46 C 475.85 177.04 470.20 178.57 464.34 179.26 C 467.17 196.37 481.41 206.98 499.18 207.00 C 503.84 193.00 497.42 175.55 481.14 174.46 M 350.86 179.32 C 348.53 186.03 343.49 190.43 338.09 194.24 C 339.91 199.97 351.51 198.08 353.15 205.82 C 354.52 198.45 376.14 198.03 365.52 191.52 C 358.37 189.31 360.01 175.90 350.86 179.32 M 257.32 183.26 C 250.20 186.38 245.08 193.90 247.50 201.91 C 250.21 210.65 262.31 210.89 268.86 207.47 C 267.86 198.70 259.82 190.56 257.32 183.26 M 449.05 183.05 C 446.74 191.68 439.02 198.63 438.19 207.48 C 444.37 210.63 455.21 210.78 459.05 203.29 C 462.30 194.98 457.14 185.89 449.05 183.05 M 185.53 186.42 C 167.29 189.62 187.76 202.52 193.06 208.82 C 200.72 202.54 199.63 182.98 185.53 186.42 M 515.83 186.23 C 505.74 189.93 508.62 203.37 513.92 208.82 C 519.51 203.83 524.79 197.59 530.01 191.97 C 527.89 186.98 520.90 185.47 515.83 186.23 M 294.25 187.67 C 291.93 190.39 287.26 192.61 289.88 197.03 C 297.10 209.80 303.19 225.23 310.08 236.91 C 309.81 222.90 304.97 206.66 303.41 191.72 C 302.95 186.87 297.55 188.61 294.25 187.67 M 412.12 187.74 C 408.94 188.50 404.25 187.19 403.38 191.52 C 401.37 206.58 397.98 221.59 396.10 236.53 C 402.37 235.09 400.85 223.27 405.97 219.05 C 408.43 209.46 425.16 194.71 412.12 187.74 M 87.15 195.54 C 83.44 196.98 78.32 195.33 75.47 198.24 C 76.51 199.52 91.62 197.82 87.15 195.54 M 619.12 195.46 C 617.71 198.89 628.23 198.18 631.85 198.92 C 629.36 194.89 623.14 197.09 619.12 195.46 M 65.40 200.15 C 60.46 204.15 62.86 206.18 67.80 202.79 C 61.61 209.50 76.18 210.66 75.98 204.27 C 72.71 202.52 69.16 200.12 65.40 200.15 M 638.67 200.56 C 636.08 201.71 633.36 202.64 631.02 204.27 C 630.29 209.29 642.73 210.51 640.23 204.79 C 637.49 200.90 643.05 204.95 644.96 205.10 C 644.09 202.50 641.95 198.53 638.67 200.56 M 331.06 204.63 C 324.59 209.34 334.92 223.38 332.22 231.86 C 339.43 231.57 347.68 225.66 348.04 218.11 C 349.23 208.17 338.83 204.97 331.06 204.63 M 375.23 204.67 C 369.44 205.55 361.83 206.40 359.66 212.89 C 355.91 222.40 365.74 231.60 374.77 231.89 C 372.06 223.58 383.36 207.99 375.23 204.67 M 56.20 206.40 C 52.70 207.48 52.65 210.32 56.64 209.37 C 56.68 217.94 66.37 205.72 56.20 206.40 M 649.43 206.57 C 640.29 207.43 651.49 217.35 650.36 209.37 C 655.59 210.80 653.06 205.69 649.43 206.57 M 215.68 214.61 C 211.60 215.96 201.08 220.60 209.49 224.46 C 216.19 227.56 217.48 237.02 224.88 238.95 C 236.32 231.40 231.29 210.69 215.68 214.61 M 243.36 214.24 C 234.43 217.03 244.15 227.20 239.38 233.29 C 234.85 242.71 246.12 234.72 250.31 235.45 C 260.51 239.07 256.98 223.94 263.87 220.07 C 258.44 217.65 249.48 217.54 243.36 214.24 M 461.49 214.49 C 456.19 217.59 450.25 219.07 444.14 218.48 C 441.06 223.98 451.62 228.51 450.02 235.26 C 456.17 235.52 462.55 236.11 468.73 238.02 C 461.39 231.57 474.39 213.94 461.49 214.49 M 487.41 214.64 C 473.42 213.88 472.77 232.79 482.10 238.94 C 489.97 235.49 492.55 225.26 500.93 221.76 C 499.60 216.75 492.19 214.31 487.41 214.64 M 171.37 221.20 C 167.08 229.06 160.37 235.17 156.04 242.94 C 167.32 249.44 179.03 255.81 190.89 260.98 C 191.78 254.89 195.89 251.22 199.98 248.09 C 190.36 239.92 182.74 226.70 171.37 221.20 M 533.46 221.33 C 523.81 229.36 516.11 239.98 507.02 248.08 C 511.12 251.23 515.21 254.89 516.11 260.98 C 527.97 255.81 539.67 249.44 550.96 242.94 C 545.44 235.94 540.39 225.20 533.46 221.33 M 63.27 222.03 C 61.23 227.01 55.79 235.89 62.40 239.69 C 69.18 245.14 78.79 237.57 79.93 230.23 C 74.87 226.72 69.24 223.47 63.27 222.03 M 275.54 222.40 C 271.69 226.36 266.01 230.19 266.23 236.37 C 266.16 248.71 281.68 251.32 290.05 246.05 C 283.83 239.67 282.15 225.95 275.54 222.40 M 429.51 222.13 C 425.79 230.04 421.92 238.58 416.96 246.05 C 423.72 249.79 435.99 250.08 439.42 241.47 C 443.93 233.76 436.17 224.60 429.51 222.13 M 641.43 222.41 C 636.45 224.61 631.45 226.98 627.07 230.23 C 628.29 239.21 641.25 246.47 647.30 237.14 C 647.77 233.04 647.07 221.53 641.43 222.41 M 353.17 229.50 C 351.48 234.14 345.54 235.62 344.05 239.94 C 350.12 243.47 356.88 243.47 362.95 239.94 C 360.97 235.98 355.67 232.99 353.17 229.50 M 46.44 234.39 C 36.40 236.55 32.36 249.86 35.48 258.74 C 47.92 262.66 58.73 236.05 46.44 234.39 M 657.69 234.13 C 651.20 242.30 659.38 260.98 671.14 258.65 C 675.44 249.21 669.14 233.82 657.69 234.13 M 93.14 238.04 C 91.19 243.39 88.13 250.06 91.30 255.48 C 98.64 262.76 109.59 254.94 113.95 248.02 C 107.15 244.44 100.35 240.74 93.14 238.04 M 612.35 238.43 C 605.75 241.31 599.43 244.81 592.98 248.00 C 597.47 255.11 609.07 263.13 616.17 254.91 C 617.88 250.48 617.13 238.96 612.35 238.43 M 21.36 241.39 C 18.85 243.38 14.15 244.03 13.98 247.81 C 16.63 248.08 25.78 242.76 21.36 241.39 M 685.02 241.02 C 682.75 244.62 689.91 247.27 692.97 247.85 C 692.88 243.82 687.66 243.20 685.02 241.02 M 246.82 245.43 C 243.05 246.89 239.28 248.62 236.06 251.09 C 243.02 256.93 249.98 264.31 255.97 270.89 C 265.90 263.32 262.86 240.57 246.82 245.43 M 453.70 245.39 C 441.34 247.33 444.12 264.93 451.05 270.91 C 456.72 264.20 464.19 257.09 470.94 251.08 C 465.82 247.90 460.13 243.54 453.70 245.39 M 76.53 248.59 C 62.27 248.36 55.96 262.65 59.49 274.53 C 46.98 282.32 48.76 300.20 61.16 307.56 C 71.37 301.29 75.94 288.64 70.13 277.32 C 82.05 273.14 87.48 253.18 76.53 248.59 M 336.04 248.30 C 335.44 256.55 340.54 267.28 339.94 276.66 C 345.85 276.64 350.82 272.57 353.83 268.48 C 356.01 273.81 361.75 275.87 367.03 276.80 C 367.60 267.32 370.31 257.76 371.57 248.61 C 364.94 249.14 357.11 251.36 353.15 256.71 C 350.06 250.14 342.14 250.27 336.04 248.30 M 626.38 248.30 C 622.60 259.25 624.93 271.74 636.70 276.59 C 634.70 284.87 631.39 296.68 640.94 302.12 C 644.42 312.62 650.60 303.94 653.28 298.36 C 661.06 291.24 653.52 279.08 647.54 273.87 C 652.06 260.21 641.18 246.58 626.38 248.30 M 204.39 253.36 C 199.03 254.92 193.71 265.49 201.28 267.71 C 214.71 273.71 227.31 282.92 240.80 287.81 C 231.75 276.05 216.70 262.39 204.39 253.36 M 501.29 253.31 C 488.98 262.02 480.66 275.70 467.71 283.78 C 464.96 285.27 465.97 289.53 469.24 287.42 C 481.92 278.50 497.14 273.87 509.74 264.82 C 509.52 259.82 506.84 253.60 501.29 253.31 M 19.44 256.39 C 15.56 256.72 15.24 262.61 16.58 265.11 C 18.92 263.40 21.12 257.52 19.44 256.39 M 130.08 256.11 C 126.42 260.67 126.08 267.69 129.46 272.47 C 136.12 279.25 147.66 273.49 151.04 266.46 C 143.91 263.42 137.03 259.66 130.08 256.11 M 270.87 256.40 C 270.55 260.94 269.64 265.40 268.94 269.89 C 275.78 268.90 283.03 265.27 284.67 257.94 C 280.02 257.84 275.41 257.39 270.87 256.40 M 435.34 256.64 C 431.00 257.49 426.51 257.64 422.23 258.64 C 424.86 265.46 431.20 268.87 438.02 269.94 C 436.81 265.60 436.81 259.71 435.34 256.64 M 576.36 256.35 C 569.48 259.24 563.66 265.05 555.98 265.62 C 558.21 273.66 571.75 279.55 578.07 271.96 C 580.77 267.19 580.51 259.17 576.36 256.35 M 686.75 256.18 C 687.17 259.33 687.62 262.98 690.37 265.03 C 692.55 262.98 690.90 255.93 686.75 256.18 M 296.49 261.56 C 292.04 265.97 287.57 270.97 286.74 277.44 C 280.51 277.45 272.12 278.16 267.97 282.90 C 275.60 288.23 281.73 295.26 288.09 301.99 C 292.08 298.87 294.30 293.80 293.95 288.73 C 298.85 288.79 305.52 289.51 308.85 286.00 C 304.81 278.31 300.72 267.27 296.49 261.56 M 409.97 261.10 C 406.53 269.63 401.92 277.61 398.09 285.95 C 401.61 289.74 408.15 288.92 412.88 288.50 C 413.02 293.54 414.65 298.93 418.93 301.99 C 425.26 295.24 431.41 288.24 439.03 282.89 C 434.85 278.36 426.53 277.05 420.31 277.52 C 419.37 270.81 414.72 265.57 409.97 261.10 M 114.97 262.42 C 108.49 269.07 94.50 265.56 93.71 277.27 C 96.18 286.54 84.03 293.13 88.98 302.56 C 93.29 306.12 95.44 311.19 97.53 315.99 C 105.39 310.73 113.98 300.71 109.55 290.27 C 120.40 285.00 118.00 269.81 114.97 262.42 M 591.20 262.08 C 589.87 272.12 586.36 284.38 597.45 290.27 C 592.85 300.87 601.37 309.83 608.80 315.98 C 614.85 307.05 625.22 294.96 613.12 284.40 C 617.93 268.36 600.51 268.09 591.20 262.08 M 49.53 263.26 C 43.71 266.49 42.28 271.16 45.68 277.08 C 49.03 273.30 50.90 268.30 49.53 263.26 M 656.88 263.51 C 656.46 268.52 658.03 273.33 661.33 277.12 C 664.87 271.37 663.11 265.45 656.88 263.51 M 6.16 269.06 C 7.36 272.28 8.44 275.53 9.25 278.86 C 12.63 277.81 10.64 268.12 6.16 269.06 M 698.51 269.27 C 695.28 271.03 695.99 282.86 698.39 276.85 C 697.77 274.17 703.44 268.16 698.51 269.27 M 30.31 272.28 C 22.92 279.22 18.38 292.98 27.55 300.42 C 39.26 299.18 42.29 275.16 30.31 272.28 M 675.37 272.31 C 665.50 278.15 668.25 297.17 678.95 300.88 C 688.86 293.82 684.21 276.88 675.37 272.31 M 166.33 275.30 C 161.52 282.00 162.80 291.55 169.37 296.75 C 177.11 301.06 187.35 294.71 189.82 287.25 C 182.90 282.06 173.44 279.06 166.33 275.30 M 539.89 275.38 C 532.69 280.02 523.83 281.88 517.18 287.25 C 519.55 293.79 527.67 300.13 535.25 297.66 C 544.19 295.22 546.14 280.09 539.89 275.38 M 151.32 281.48 C 145.57 283.77 139.96 286.34 133.86 287.53 C 123.94 299.57 129.42 314.09 139.86 323.03 C 143.88 319.33 146.33 313.80 151.79 311.91 C 157.37 303.81 156.54 287.48 151.32 281.48 M 554.34 281.22 C 554.34 287.78 547.66 298.22 553.22 304.80 C 552.05 313.93 563.88 315.28 567.14 323.02 C 571.90 318.83 574.61 311.36 579.38 306.53 C 578.91 300.32 575.77 293.91 573.67 287.95 C 567.34 285.65 560.73 283.55 554.34 281.22 M 204.46 295.06 C 202.32 301.83 199.79 312.23 208.11 316.08 C 216.32 321.04 225.68 314.22 229.92 307.07 C 220.98 304.12 213.22 298.46 204.46 295.06 M 345.44 295.31 C 340.81 294.98 344.99 300.41 344.49 302.52 C 346.69 312.64 344.54 330.35 358.23 325.36 C 361.90 316.11 361.35 305.65 363.98 296.06 C 358.03 294.42 351.59 296.00 345.44 295.31 M 500.69 295.70 C 492.74 299.40 485.38 304.27 477.04 307.06 C 481.70 317.66 499.86 322.85 504.36 309.54 C 503.43 305.31 505.94 294.88 500.69 295.70 M 192.85 300.30 C 187.06 304.37 180.66 307.02 173.66 308.00 C 169.31 313.20 175.87 317.62 178.81 321.33 C 181.00 323.99 179.72 330.75 183.62 330.78 C 187.60 326.27 190.62 320.65 196.83 318.84 C 193.24 313.12 193.44 306.73 192.85 300.30 M 513.83 300.21 C 513.83 306.72 513.67 313.10 510.17 318.84 C 517.25 320.18 519.21 328.50 524.90 330.95 C 524.59 321.65 537.33 316.66 533.34 308.00 C 526.21 307.07 519.80 304.13 513.83 300.21 M 39.41 303.23 C 33.82 305.35 32.78 312.54 32.00 317.70 C 36.90 321.97 44.17 319.78 49.82 321.83 C 54.76 314.54 49.58 301.19 39.41 303.23 M 666.34 303.34 C 653.78 300.34 650.40 327.49 664.17 320.62 C 678.94 325.07 676.25 304.75 666.34 303.34 M 317.28 304.30 C 312.34 308.03 307.88 312.52 301.99 315.04 C 308.68 322.92 316.44 329.98 323.96 337.06 C 340.19 330.43 321.40 312.61 317.28 304.30 M 388.26 304.20 C 384.02 313.15 379.33 321.89 375.18 330.87 C 386.38 345.59 394.96 321.37 404.92 315.87 C 399.54 312.30 394.16 306.78 388.26 304.20 M 77.04 307.23 C 69.28 307.67 65.90 317.11 66.25 323.68 C 73.14 325.05 80.48 324.85 86.93 327.96 C 91.82 321.22 84.46 309.06 77.04 307.23 M 628.41 307.32 C 621.99 310.74 615.42 321.31 619.99 328.03 C 626.14 324.30 633.72 324.78 640.62 323.77 C 641.11 316.74 637.16 306.15 628.41 307.32 M 243.83 315.19 C 242.25 322.12 243.39 329.20 245.66 335.28 C 238.76 336.04 236.05 343.55 232.96 348.84 C 241.76 350.88 251.68 352.27 260.97 352.62 C 261.05 347.73 261.87 341.58 257.09 338.59 C 262.11 336.66 267.12 333.41 268.94 328.11 C 260.53 323.94 252.27 318.96 243.83 315.19 M 461.53 315.34 C 454.46 320.91 445.67 323.55 437.97 328.08 C 439.97 333.32 444.79 336.69 449.91 338.59 C 445.15 341.57 445.96 347.70 445.96 352.56 C 455.29 351.98 465.13 350.64 474.07 348.85 C 470.94 343.57 468.25 336.04 461.34 335.28 C 463.32 329.45 466.32 318.86 461.53 315.34 M 114.57 316.32 C 109.80 319.17 105.84 324.00 106.19 329.88 C 113.78 331.08 121.39 332.23 128.89 333.92 C 131.37 326.44 123.87 313.85 114.57 316.32 M 589.35 316.21 C 581.58 316.46 575.81 327.53 578.09 333.94 C 585.54 332.00 593.15 330.89 600.76 329.81 C 601.00 323.77 595.94 315.82 589.35 316.21 M 160.38 320.64 C 150.87 319.09 140.00 339.73 154.70 336.61 C 161.00 337.53 167.77 342.00 173.89 338.85 C 173.39 331.05 171.06 319.20 160.38 320.64 M 231.56 320.23 C 228.15 323.07 224.02 324.65 220.16 326.72 C 223.33 330.01 225.14 334.21 226.02 338.64 C 231.35 335.05 236.41 324.75 231.56 320.23 M 473.82 320.41 C 472.78 327.07 475.37 334.87 480.99 338.64 C 481.86 334.20 483.67 330.00 486.84 326.72 C 482.28 325.11 478.36 321.18 473.82 320.41 M 546.18 320.71 C 535.93 319.47 533.40 331.18 533.10 338.75 C 539.05 342.14 546.45 336.91 553.01 336.61 C 566.89 338.48 555.54 318.74 546.18 320.71 M 20.72 322.60 C 19.40 326.55 14.07 320.83 16.90 326.71 C 21.73 330.93 26.34 324.19 20.72 322.60 M 685.93 322.03 C 677.92 327.76 691.76 331.00 690.93 323.22 C 688.88 324.62 686.66 324.86 685.93 322.03 M 29.07 324.15 C 27.06 330.49 35.99 329.30 39.49 330.55 C 128.12 344.52 217.85 355.41 305.93 369.90 C 214.60 383.59 123.20 395.53 32.00 409.91 C 27.54 409.12 27.56 419.07 33.40 414.44 C 136.84 399.14 241.01 384.30 344.01 369.06 C 238.72 355.31 134.21 338.34 29.07 324.15 M 673.60 324.56 C 570.16 339.86 465.99 354.69 362.99 369.94 C 466.78 383.73 569.91 399.74 673.49 414.55 C 680.11 418.62 679.07 408.69 674.21 409.67 C 583.42 394.81 491.37 384.06 401.07 369.10 C 492.40 355.41 583.80 343.47 675.00 329.09 C 679.46 329.88 679.42 319.92 673.60 324.56 M 199.16 327.54 C 193.74 330.61 190.25 336.95 189.32 343.00 C 198.58 343.53 207.64 345.09 216.68 346.97 C 218.19 337.01 211.07 323.35 199.16 327.54 M 500.53 327.50 C 492.28 328.96 489.57 339.60 490.33 346.93 C 499.10 344.65 508.26 343.89 517.39 342.90 C 516.79 335.10 509.99 324.33 500.53 327.50 M 21.05 332.15 C 17.67 339.19 27.98 339.80 32.24 339.38 C 35.18 335.42 24.38 328.20 24.60 334.98 C 24.91 340.12 23.10 332.30 21.05 332.15 M 33.09 332.30 C 31.21 334.08 33.95 341.30 37.78 341.31 C 103.47 350.86 169.94 359.43 234.99 369.94 C 169.44 378.93 104.21 388.72 38.71 397.61 C 33.93 397.35 32.54 402.92 32.23 406.67 C 118.93 393.28 206.62 381.68 292.94 369.10 C 206.14 357.81 119.67 345.21 33.09 332.30 M 673.18 332.39 C 587.04 346.09 499.84 357.27 414.06 369.90 C 501.13 381.16 587.85 394.00 674.71 406.72 C 674.85 393.08 657.01 397.07 648.09 394.59 C 589.46 386.36 530.02 378.41 472.01 369.06 C 538.10 359.92 603.92 350.24 669.95 341.08 C 673.11 340.94 676.68 332.46 673.18 332.39 M 680.25 332.28 C 675.30 331.48 670.63 342.79 679.06 339.22 C 683.31 340.38 689.44 335.29 685.25 332.26 C 681.46 339.55 684.04 334.06 680.25 332.28 M 286.19 337.26 C 283.86 343.39 282.51 349.87 279.91 355.94 C 289.52 358.57 299.78 359.64 309.70 360.95 C 321.30 345.36 294.50 344.25 286.19 337.26 M 420.21 337.48 C 411.70 342.08 401.48 345.64 394.10 351.14 C 394.19 369.96 416.24 355.04 427.08 355.99 C 424.16 350.28 423.60 341.61 420.21 337.48 M 27.82 344.24 C 28.85 348.96 33.49 351.38 37.17 353.88 C 35.43 349.56 31.68 346.60 27.82 344.24 M 35.13 343.98 C 37.71 351.52 39.45 359.31 44.10 365.98 C 39.40 362.98 37.38 357.31 33.05 353.90 C 36.24 359.21 39.98 367.58 45.87 369.20 C 41.13 371.91 35.76 378.81 32.89 384.94 C 37.76 382.14 39.33 375.95 44.06 373.02 C 39.46 379.72 37.72 387.47 35.12 395.00 C 60.69 391.09 86.24 388.54 111.73 383.81 C 114.95 374.82 114.54 364.35 111.77 355.27 C 86.40 349.94 60.70 348.08 35.13 343.98 M 668.50 344.37 C 644.09 348.30 619.63 350.58 595.27 355.19 C 592.05 364.18 592.46 374.65 595.23 383.73 C 620.59 389.06 646.30 390.92 671.87 395.02 C 669.29 387.48 667.55 379.69 662.90 373.02 C 667.60 376.03 669.60 381.68 673.95 385.10 C 670.75 379.79 667.02 371.42 661.13 369.80 C 665.87 367.09 671.24 360.19 674.11 354.06 C 669.45 356.74 667.81 362.49 663.54 365.56 C 664.23 362.06 675.61 344.78 668.50 344.37 M 678.90 344.21 C 675.27 346.79 671.47 349.61 669.83 353.93 C 673.30 351.26 678.51 349.17 678.90 344.21 M 352.11 347.99 C 353.43 351.25 351.07 357.78 353.98 360.06 C 352.76 357.27 358.56 346.66 352.11 347.99 M 341.21 351.14 C 337.96 354.42 344.42 358.13 346.82 360.23 C 345.05 357.40 344.97 351.33 341.21 351.14 M 364.27 351.15 C 362.69 354.07 361.34 357.12 360.16 360.23 C 362.84 358.41 370.69 351.93 364.27 351.15 M 119.28 356.23 C 120.50 366.82 119.39 372.24 119.18 382.70 C 132.27 383.52 144.82 378.13 157.85 377.70 C 155.83 371.87 155.87 367.13 157.83 361.30 C 144.88 360.75 132.45 355.02 119.28 356.23 M 579.62 356.52 C 569.36 357.66 559.47 360.86 549.15 361.30 C 551.17 367.13 551.13 371.87 549.17 377.70 C 562.05 377.88 576.08 385.23 587.87 381.86 C 582.52 373.99 596.09 352.27 579.62 356.52 M 332.86 361.23 C 331.94 366.31 338.22 365.50 341.67 366.12 C 340.96 363.52 335.87 361.75 332.86 361.23 M 372.55 361.44 C 354.46 367.49 378.28 366.49 372.55 361.44 M 167.50 362.31 C 159.00 364.64 162.82 380.90 172.39 376.33 C 185.52 372.14 202.65 374.74 213.98 369.12 C 199.08 365.65 182.90 364.41 167.50 362.31 M 535.44 362.58 C 522.47 364.39 509.61 367.51 496.48 367.58 C 493.26 367.75 491.77 370.68 495.74 371.21 C 510.44 371.70 524.80 375.91 539.50 376.69 C 547.61 374.59 544.62 358.89 535.44 362.58 M 338.37 373.26 C 320.65 380.80 349.55 373.93 338.37 373.26 M 365.33 372.88 C 373.13 382.47 378.30 373.00 365.33 372.88 M 343.51 376.47 C 250.39 425.50 157.47 474.73 63.98 523.05 C 64.72 524.99 66.78 528.27 69.14 525.93 C 151.43 484.52 231.87 439.73 313.95 397.95 C 249.10 463.64 180.97 526.27 116.22 592.59 C 114.82 595.55 118.26 598.65 120.26 595.30 C 193.95 521.89 271.65 448.44 343.51 376.47 M 362.68 376.23 C 437.40 449.61 512.44 521.58 586.81 595.32 C 588.72 599.19 592.15 595.15 590.77 592.60 C 526.04 526.30 457.89 463.68 393.07 397.94 C 475.06 439.90 555.59 484.56 637.89 526.00 C 640.17 527.97 642.36 525.22 642.97 523.06 C 549.18 474.71 456.32 424.95 362.68 376.23 M 306.40 378.34 C 297.68 380.49 288.62 380.86 279.92 383.01 C 282.43 389.12 283.96 395.56 286.13 401.78 C 295.14 397.65 303.93 393.03 312.82 388.63 C 312.42 384.71 312.07 376.24 306.40 378.34 M 397.29 378.05 C 385.79 393.53 412.42 394.78 420.87 401.78 C 423.04 395.58 424.52 389.14 427.09 383.07 C 417.48 380.43 407.22 379.36 397.29 378.05 M 345.64 379.65 C 343.35 381.40 341.43 383.62 339.90 386.07 C 342.85 392.93 348.17 377.18 345.64 379.65 M 353.02 378.94 C 352.43 382.89 352.01 386.90 352.13 390.91 C 358.45 392.83 353.14 380.63 353.02 378.94 M 360.18 378.77 C 361.32 381.88 362.68 384.92 364.29 387.83 C 370.57 387.14 362.90 380.34 360.18 378.77 M 349.31 381.26 C 303.29 474.79 257.01 568.80 210.68 661.70 C 208.27 665.28 215.13 666.31 215.73 662.80 C 257.79 581.65 295.86 497.56 338.13 417.18 C 324.14 508.01 306.29 598.08 292.23 688.91 C 291.68 693.52 298.40 692.77 297.47 688.41 C 314.25 586.12 333.60 482.15 349.31 381.26 M 356.89 381.23 C 375.20 484.12 392.54 587.08 409.91 690.06 C 409.71 692.94 414.84 692.79 414.72 689.84 C 401.18 598.86 381.38 507.43 369.58 417.12 C 410.59 498.66 449.55 580.92 490.88 662.14 C 491.46 666.55 499.31 665.29 496.02 661.00 C 449.30 568.57 404.02 473.24 356.89 381.23 M 36.54 385.49 C 33.08 387.92 28.75 390.26 27.82 394.76 C 31.04 393.34 37.14 387.49 36.54 385.49 M 669.82 385.12 C 671.72 389.30 675.26 392.49 679.12 394.86 C 678.32 390.01 673.48 387.65 669.82 385.12 M 256.57 386.60 C 248.83 388.10 240.35 388.24 232.93 390.15 C 236.05 395.42 238.75 402.96 245.66 403.72 C 243.52 409.71 241.48 418.42 244.66 423.74 C 252.30 418.99 260.92 415.17 269.03 410.92 C 267.02 405.68 262.20 402.30 257.09 400.41 C 261.94 397.65 264.46 383.76 256.57 386.60 M 446.03 386.38 C 445.93 391.25 445.13 397.43 449.91 400.41 C 444.88 402.33 439.88 405.59 438.06 410.89 C 446.47 415.05 454.73 420.04 463.17 423.81 C 464.74 416.87 463.61 409.80 461.34 403.72 C 468.24 402.96 470.95 395.45 474.04 390.16 C 465.24 388.12 455.32 386.73 446.03 386.38 M 213.60 392.55 C 205.94 395.43 196.60 394.28 189.31 396.82 C 191.14 405.50 198.52 415.74 208.74 411.01 C 214.65 408.80 221.00 392.45 213.60 392.55 M 490.32 392.03 C 489.54 399.51 492.57 410.64 501.18 411.67 C 510.63 414.15 516.38 403.73 517.68 396.00 C 508.42 395.47 499.35 393.91 490.32 392.03 M 27.94 399.78 C 24.48 399.75 19.31 400.91 20.55 405.50 C 21.92 410.36 25.19 397.70 24.60 404.02 C 25.23 413.63 40.16 396.10 27.94 399.78 M 167.51 399.44 C 160.92 400.64 154.45 403.12 147.78 402.79 C 144.48 414.19 162.37 424.43 170.18 414.18 C 172.83 409.30 178.25 395.91 167.51 399.44 M 534.50 399.15 C 531.22 403.26 534.99 410.96 537.69 415.35 C 546.29 424.06 563.34 412.90 558.66 402.29 C 550.23 404.10 542.91 397.91 534.50 399.15 M 675.44 399.33 C 670.55 402.49 682.72 411.31 682.40 404.02 C 681.81 397.70 685.07 410.36 686.45 405.50 C 687.78 399.11 679.29 400.08 675.44 399.33 M 226.01 400.36 C 225.14 404.79 223.32 408.99 220.16 412.28 C 224.72 413.89 228.64 417.82 233.18 418.59 C 234.21 411.92 231.64 404.14 226.01 400.36 M 480.33 400.61 C 475.61 404.98 471.38 412.76 474.63 418.60 C 478.57 417.08 482.61 414.01 486.84 412.28 C 483.15 409.45 482.39 403.08 480.33 400.61 M 323.39 402.36 C 316.21 409.20 308.19 416.58 302.30 423.81 C 308.41 426.48 312.71 432.64 318.74 434.80 C 321.53 424.12 340.35 407.19 323.39 402.36 M 382.46 402.40 C 366.83 409.37 386.30 423.90 388.26 434.80 C 394.44 432.77 398.42 426.12 405.00 423.96 C 398.14 416.37 390.28 407.52 382.46 402.40 M 127.34 405.38 C 120.44 407.35 113.29 408.05 106.24 409.19 C 105.07 418.60 118.17 428.69 124.95 418.98 C 127.41 415.76 133.26 405.78 127.34 405.38 M 578.20 405.30 C 575.66 409.61 580.27 416.75 583.49 420.73 C 591.41 427.55 601.46 417.50 600.80 409.12 C 593.25 407.92 585.71 406.68 578.20 405.30 M 301.61 406.57 C 225.79 447.61 149.36 487.64 72.95 527.74 C 71.32 530.93 78.11 532.81 80.55 532.60 C 139.13 501.89 197.22 470.05 256.20 440.17 C 210.53 485.49 164.48 530.58 117.74 574.68 C 113.01 577.09 111.29 584.74 115.64 587.86 C 176.42 528.97 236.95 469.70 298.26 411.30 C 298.78 410.35 305.00 404.68 301.61 406.57 M 404.04 405.93 C 466.06 466.94 529.30 526.89 591.40 587.91 C 596.03 585.78 593.81 577.26 589.78 575.16 C 542.80 530.98 496.65 485.66 450.80 440.21 C 510.18 469.84 568.06 502.70 627.17 532.84 C 629.36 532.05 635.81 530.99 634.03 527.79 C 557.29 487.30 480.47 446.88 404.04 405.93 M 182.10 408.05 C 182.41 417.34 169.65 422.36 173.67 430.99 C 180.93 431.59 186.84 435.57 193.11 438.83 C 193.28 432.32 193.25 425.90 196.83 420.16 C 189.74 418.82 187.79 410.50 182.10 408.05 M 523.38 408.22 C 519.39 412.72 516.38 418.35 510.17 420.16 C 513.57 425.89 513.94 432.19 513.79 438.73 C 519.83 434.93 526.19 431.90 533.34 431.00 C 537.68 425.79 531.13 421.38 528.19 417.67 C 526.00 415.00 527.27 408.24 523.38 408.22 M 17.15 411.61 C 13.81 418.08 19.59 412.35 21.07 416.97 C 25.95 412.85 22.40 409.76 17.15 411.61 M 86.33 411.33 C 80.32 414.71 73.03 414.23 66.38 415.23 C 65.76 420.55 68.08 425.79 71.49 429.74 C 81.65 438.41 93.27 416.56 86.33 411.33 M 620.07 411.03 C 615.29 417.29 621.97 427.80 627.74 431.35 C 636.52 433.71 641.35 422.40 640.75 415.32 C 633.86 413.94 626.51 414.15 620.07 411.03 M 684.22 411.55 C 681.89 421.50 698.81 410.72 684.22 411.55 M 349.35 413.15 C 344.51 421.97 346.04 433.32 343.02 442.94 C 349.73 444.19 357.17 444.19 363.94 443.05 C 359.01 432.66 365.42 409.47 349.35 413.15 M 138.47 416.39 C 135.66 422.56 130.77 427.40 127.37 433.13 C 129.30 439.16 130.67 446.06 133.86 451.46 C 140.56 452.89 146.70 456.19 153.32 457.87 C 153.71 452.17 154.05 446.39 156.28 441.06 C 155.62 430.09 147.13 421.75 138.47 416.39 M 566.61 416.47 C 563.38 424.09 552.02 425.23 553.22 434.20 C 547.17 441.13 555.20 449.65 553.68 457.87 C 558.31 457.54 561.95 454.24 566.39 453.26 C 577.34 454.07 576.36 440.94 579.48 433.95 C 576.14 428.47 571.84 418.68 566.61 416.47 M 47.71 417.48 C 42.68 419.38 36.31 417.36 32.02 421.28 C 32.43 427.21 35.48 438.94 43.97 435.05 C 51.68 435.44 55.19 417.99 47.71 417.48 M 657.18 417.18 C 652.92 423.49 656.07 435.06 664.52 435.53 C 672.26 437.35 674.38 426.79 675.00 421.30 C 670.09 417.03 662.82 419.21 657.18 417.18 M 211.57 421.44 C 200.85 423.50 201.41 436.08 204.39 444.00 C 213.18 440.55 220.94 434.85 229.96 431.94 C 226.18 425.66 219.36 420.08 211.57 421.44 M 490.62 421.55 C 484.76 422.73 480.21 427.05 477.08 431.94 C 486.02 434.87 493.78 440.53 502.54 443.95 C 507.20 434.69 504.50 418.69 490.62 421.55 M 97.53 422.99 C 92.32 433.27 81.71 443.75 93.88 454.60 C 89.08 470.60 106.58 471.04 115.68 476.74 C 117.36 466.98 120.51 454.53 109.55 448.73 C 114.12 438.18 105.53 428.21 97.53 422.99 M 607.61 423.55 C 601.14 430.58 593.00 438.43 597.45 448.73 C 586.40 454.62 589.85 466.93 591.22 476.94 C 600.55 471.00 617.53 470.58 613.20 454.85 C 624.84 445.30 614.98 428.49 607.61 423.55 M 333.49 430.38 C 295.44 507.68 257.94 585.84 219.04 663.01 C 221.74 664.15 224.79 663.78 227.64 663.59 C 258.08 603.74 285.67 542.16 317.06 483.03 C 305.10 549.22 293.92 615.66 282.12 681.71 C 284.93 682.66 286.86 686.28 289.93 685.76 C 303.47 600.86 320.54 513.09 333.49 430.38 M 372.85 430.16 C 387.88 513.83 402.77 597.61 416.47 681.53 C 415.51 690.42 421.67 683.08 424.82 681.75 C 412.72 615.61 401.48 549.26 389.91 482.96 C 421.36 542.17 448.89 603.71 479.35 663.59 C 482.20 663.76 485.26 664.18 487.95 663.01 C 448.76 585.98 411.76 506.37 372.85 430.16 M 61.16 431.44 C 48.74 438.73 47.06 456.69 59.49 464.47 C 54.94 478.26 65.33 492.50 80.62 490.70 C 84.85 479.28 81.18 467.20 70.12 461.68 C 75.75 450.55 70.74 437.87 61.16 431.44 M 645.18 431.29 C 636.13 438.61 630.63 449.81 636.93 460.93 C 631.62 466.40 620.78 473.10 625.31 482.97 C 624.21 494.90 636.93 489.21 643.64 485.65 C 648.56 479.86 649.13 471.59 647.51 464.47 C 660.26 456.67 658.14 437.91 645.18 431.29 M 288.07 437.01 C 281.73 443.75 275.58 450.76 267.97 456.11 C 272.15 460.64 280.46 461.94 286.69 461.48 C 287.63 468.19 292.28 473.42 297.03 477.90 C 300.46 469.37 305.07 461.38 308.91 453.05 C 305.40 449.27 298.84 450.07 294.12 450.50 C 293.98 445.46 292.34 440.07 288.07 437.01 M 418.20 437.05 C 415.16 440.85 412.52 445.19 413.05 450.29 C 408.15 450.18 401.48 449.50 398.15 453.00 C 401.87 461.39 406.50 469.39 409.98 477.92 C 414.66 473.42 419.37 468.26 420.26 461.56 C 426.46 461.55 434.88 460.84 439.00 456.12 C 431.13 450.81 425.41 443.11 418.20 437.05 M 28.09 438.14 C 18.24 445.41 22.76 460.52 30.98 467.00 C 41.51 461.64 39.24 442.10 28.09 438.14 M 678.29 438.42 C 667.55 442.58 665.35 461.93 676.03 467.00 C 684.53 460.97 688.93 443.67 678.29 438.42 M 171.75 441.34 C 162.90 444.28 160.89 457.78 166.94 464.06 C 171.98 460.79 177.35 458.17 182.93 455.97 C 198.64 452.76 179.94 437.20 171.75 441.34 M 527.89 441.45 C 523.34 443.22 518.49 447.14 517.18 451.75 C 524.08 456.77 532.64 459.59 540.03 463.80 C 548.61 456.60 540.75 436.23 527.89 441.45 M 238.48 451.31 C 225.57 459.84 210.70 465.11 197.77 473.71 C 196.29 478.37 201.32 487.73 206.99 485.07 C 218.28 475.73 226.90 463.28 239.29 455.22 C 241.47 454.17 241.65 449.82 238.48 451.31 M 466.20 451.19 C 473.06 462.35 487.99 471.01 496.78 482.27 C 502.68 493.01 515.96 474.42 505.72 471.29 C 492.29 465.29 479.69 456.08 466.20 451.19 M 9.25 460.14 C 8.44 463.47 7.36 466.71 6.16 469.94 C 10.64 470.88 12.63 461.18 9.25 460.14 M 697.01 460.07 C 695.26 462.95 696.25 470.45 700.84 469.94 C 699.14 466.91 699.20 462.15 697.01 460.07 M 45.43 462.60 C 41.87 468.20 44.41 473.59 50.12 475.49 C 50.81 471.27 48.37 463.33 45.43 462.60 M 339.97 462.20 C 339.40 471.68 336.69 481.24 335.43 490.39 C 341.60 489.47 349.96 488.77 353.15 482.29 C 357.06 487.57 365.06 490.02 371.50 490.29 C 370.18 481.60 367.16 471.71 367.06 462.34 C 361.15 462.36 356.18 466.43 353.17 470.52 C 350.99 465.19 345.25 463.13 339.97 462.20 M 661.32 461.92 C 657.97 465.69 656.10 470.70 657.47 475.74 C 663.29 472.50 664.72 467.84 661.32 461.92 M 135.93 463.33 C 126.11 464.02 125.15 476.63 129.95 482.93 C 137.14 480.13 143.08 473.97 151.02 473.38 C 149.69 467.29 141.90 463.70 135.93 463.33 M 569.31 463.40 C 564.14 464.42 557.90 467.61 556.06 472.47 C 562.92 475.20 570.14 479.30 576.95 482.91 C 582.66 476.26 580.04 462.18 569.31 463.40 M 255.21 468.10 C 250.40 476.01 242.39 481.65 236.06 487.92 C 241.60 491.51 247.96 495.92 254.93 493.32 C 265.68 489.88 262.67 472.39 255.21 468.10 M 450.30 468.14 C 446.31 473.95 443.61 481.54 446.18 488.48 C 451.92 497.87 464.04 493.34 470.94 487.91 C 463.57 482.36 457.12 473.44 450.30 468.14 M 268.98 469.06 C 268.13 481.67 273.69 484.24 284.77 480.36 C 282.13 473.53 275.80 470.13 268.98 469.06 M 437.25 469.30 C 430.65 470.26 423.91 474.11 422.33 481.06 C 426.97 481.16 431.59 481.61 436.13 482.60 C 435.32 478.99 439.36 471.03 437.25 469.30 M 15.85 474.27 C 15.29 488.98 24.84 478.47 15.85 474.27 M 690.42 473.89 C 681.81 481.64 693.36 486.49 690.42 473.89 M 189.38 478.31 C 178.38 484.42 166.72 489.36 156.04 496.06 C 160.38 503.84 167.09 509.96 171.39 517.83 C 182.67 512.29 191.26 498.80 200.02 490.18 C 193.17 489.06 193.51 480.13 189.38 478.31 M 516.11 478.02 C 515.22 484.10 511.11 487.78 507.02 490.92 C 516.68 499.02 524.27 512.39 535.60 517.81 C 539.93 509.96 546.61 503.83 550.96 496.06 C 539.67 489.56 527.97 483.19 516.11 478.02 M 35.86 480.35 C 31.39 489.80 38.29 506.23 49.95 504.58 C 54.98 495.57 47.61 478.25 35.86 480.35 M 97.28 480.35 C 86.98 481.77 89.44 494.20 93.13 500.96 C 100.47 498.60 107.02 494.19 114.02 491.00 C 110.37 485.32 104.10 480.88 97.28 480.35 M 608.22 480.43 C 602.01 481.72 596.35 485.63 592.98 491.00 C 599.98 494.18 606.52 498.62 613.86 500.95 C 618.33 494.18 619.32 479.85 608.22 480.43 M 665.81 480.33 C 657.45 484.87 652.58 496.22 657.01 504.60 C 670.01 508.03 679.94 479.87 665.81 480.33 M 280.12 490.51 C 261.98 488.32 263.61 515.27 278.05 516.52 C 278.84 506.59 299.90 489.51 280.12 490.51 M 426.15 490.49 C 407.47 490.14 428.35 506.78 428.95 516.52 C 443.89 515.21 444.47 487.43 426.15 490.49 M 13.98 491.19 C 14.29 495.14 19.29 495.86 22.01 497.94 C 24.58 494.47 16.68 491.79 13.98 491.19 M 692.02 491.39 C 689.69 492.47 682.18 494.55 685.00 498.05 C 687.27 496.26 694.76 493.72 692.02 491.39 M 352.31 496.35 C 336.41 497.78 349.89 503.15 353.17 509.50 C 359.63 503.97 368.50 495.64 352.31 496.35 M 66.29 497.60 C 55.70 499.05 59.63 510.96 63.29 516.98 C 69.36 515.79 74.83 512.17 79.93 508.77 C 78.86 502.73 72.64 496.62 66.29 497.60 M 637.91 497.50 C 632.83 499.02 627.88 503.32 627.07 508.76 C 632.17 512.13 637.64 515.86 643.71 516.97 C 649.48 510.26 649.29 496.12 637.91 497.50 M 148.32 500.43 C 125.40 511.63 103.51 524.45 80.85 536.11 C 87.39 540.82 93.75 545.93 101.61 548.48 C 98.11 551.15 89.24 542.68 85.10 545.69 C 90.74 548.62 97.36 549.04 102.84 552.37 C 103.32 558.63 101.42 564.91 103.05 571.12 C 107.29 567.76 100.01 555.05 105.89 554.19 C 106.90 560.67 105.85 573.22 111.76 576.75 C 129.53 558.51 149.21 541.83 165.98 522.77 C 163.05 514.11 156.76 503.65 148.32 500.43 M 223.98 500.26 C 216.89 504.82 214.05 513.59 206.08 517.24 C 209.27 525.17 221.73 526.38 228.30 521.33 C 234.23 515.41 230.79 502.86 223.98 500.26 M 481.38 500.19 C 476.63 505.56 472.96 514.52 478.22 520.75 C 484.46 526.63 497.66 525.32 500.93 517.24 C 492.26 513.98 489.92 502.25 481.38 500.19 M 557.27 500.24 C 550.07 505.90 543.74 514.04 541.06 522.77 C 558.02 541.72 577.70 559.44 595.96 576.78 C 599.92 571.06 601.67 561.64 601.08 554.30 C 606.90 554.60 600.08 567.56 603.83 571.25 C 605.86 564.85 603.15 558.24 604.66 551.81 C 610.18 549.20 616.34 548.27 621.90 545.73 C 617.73 542.63 608.89 551.18 605.39 548.48 C 613.53 546.50 618.63 539.91 626.20 536.88 C 603.87 523.71 580.79 511.13 557.27 500.24 M 238.27 500.98 C 241.16 507.74 240.88 514.72 239.12 521.66 C 244.85 529.49 252.43 518.22 259.91 520.55 C 270.26 519.90 254.83 510.24 256.98 503.74 C 250.83 503.48 244.44 502.89 238.27 500.98 M 464.71 501.66 C 460.05 504.23 454.74 502.79 450.02 503.74 C 451.62 510.49 441.06 515.01 444.14 520.52 C 450.85 519.64 457.01 522.15 462.93 524.98 C 471.00 523.63 465.68 515.65 466.47 510.45 C 465.89 507.51 472.90 497.45 464.71 501.66 M 309.32 502.11 C 303.12 515.57 296.62 529.41 289.53 542.66 C 287.21 551.48 302.94 554.96 303.98 545.86 C 304.42 531.60 311.96 514.15 309.32 502.11 M 396.20 502.36 C 398.77 517.77 401.28 533.41 404.08 548.84 C 408.70 554.61 420.84 549.20 416.82 541.28 C 409.17 529.26 404.11 511.71 396.20 502.36 M 332.23 507.11 C 332.60 516.11 329.33 524.89 328.32 533.75 C 335.42 535.01 345.98 532.84 347.84 524.56 C 349.98 515.39 340.72 507.48 332.23 507.11 M 372.38 507.34 C 364.86 509.11 356.30 516.52 359.50 525.10 C 361.34 533.09 371.86 534.92 378.67 533.73 C 375.92 525.70 377.18 510.98 372.38 507.34 M 57.20 526.04 C 58.48 530.72 49.96 528.99 55.56 532.34 C 60.94 533.40 63.86 527.02 57.20 526.04 M 649.18 526.31 C 640.43 528.12 650.96 536.39 654.00 530.14 C 650.03 530.72 650.96 527.28 649.18 526.31 M 257.71 529.47 C 242.32 530.49 245.14 552.90 257.95 555.95 C 261.03 548.80 264.67 541.98 268.41 535.19 C 271.27 528.50 261.65 530.15 257.71 529.47 M 445.92 529.65 C 428.24 529.68 448.51 547.20 448.98 556.02 C 463.74 552.66 463.57 526.35 445.92 529.65 M 69.24 530.27 C 63.54 532.73 70.44 538.56 62.04 533.90 C 63.79 546.15 85.37 530.71 69.24 530.27 M 192.37 530.35 C 187.60 536.24 181.78 541.17 176.99 547.03 C 181.10 555.66 197.46 554.83 198.09 543.80 C 197.49 539.86 196.47 531.21 192.37 530.35 M 513.21 530.12 C 510.66 535.79 505.93 543.10 511.06 548.80 C 515.13 555.95 527.06 553.10 529.94 547.02 C 524.54 541.67 519.55 533.90 513.21 530.12 M 636.29 530.40 C 622.91 531.98 642.17 544.56 644.34 535.31 C 646.71 531.33 637.40 538.57 639.89 534.87 C 642.49 532.31 638.92 529.74 636.29 530.40 M 207.82 532.00 C 207.61 541.49 203.61 555.09 215.43 559.65 C 222.97 570.44 233.21 559.23 242.66 559.74 C 239.83 542.63 225.59 532.02 207.82 532.00 M 498.46 532.32 C 480.80 531.97 467.21 543.10 464.34 559.74 C 473.80 559.25 484.00 570.41 491.59 559.67 C 503.34 555.70 499.93 539.67 498.46 532.32 M 353.37 533.67 C 350.90 540.47 339.96 539.23 338.10 544.75 C 343.41 548.59 348.62 552.83 350.63 559.72 C 359.73 562.82 358.46 549.85 365.52 547.48 C 376.36 541.20 353.72 539.80 353.37 533.67 M 75.15 540.08 C 78.00 543.64 85.04 543.17 89.17 542.84 C 85.08 539.92 79.83 540.93 75.15 540.08 M 624.14 540.77 C 606.24 546.41 645.72 539.49 624.14 540.77 M 326.25 550.21 C 322.02 557.95 324.81 567.90 321.09 576.07 C 330.32 580.43 341.07 572.84 341.49 563.17 C 340.39 556.04 332.56 551.37 326.25 550.21 M 378.53 550.46 C 372.85 552.82 366.53 556.58 365.49 563.18 C 365.98 572.93 376.52 580.10 385.86 576.11 C 381.09 569.18 386.90 552.59 378.53 550.46 M 285.31 553.31 C 280.25 564.62 271.75 575.80 268.63 587.59 C 276.92 590.59 285.58 594.60 294.54 595.76 C 298.31 583.37 297.47 569.92 300.61 557.69 C 294.60 557.46 289.23 558.99 285.31 553.31 M 421.07 553.39 C 417.16 560.28 412.10 556.73 406.35 557.67 C 409.76 570.11 409.16 583.26 412.30 595.82 C 421.34 594.27 430.10 590.89 438.36 587.56 C 434.71 576.30 426.77 562.76 421.07 553.39 M 162.54 560.47 C 157.80 565.79 152.51 570.59 147.88 576.00 C 152.36 581.24 161.21 586.92 167.66 581.46 C 170.57 575.36 169.19 561.78 162.54 560.47 M 542.67 560.40 C 538.14 566.30 536.34 574.47 539.34 581.46 C 545.76 586.91 554.67 581.27 559.09 576.00 C 553.80 571.42 548.54 562.13 542.67 560.40 M 177.95 562.07 C 178.66 567.80 180.85 573.54 178.53 579.21 C 179.02 588.16 190.89 587.30 194.94 593.04 C 200.97 606.31 215.46 597.08 224.02 595.16 C 219.15 586.65 214.80 575.43 202.74 576.60 C 199.51 565.64 187.84 563.90 177.95 562.07 M 526.59 562.52 C 519.60 565.76 508.62 563.82 506.15 573.19 C 504.52 580.79 492.60 575.22 490.52 582.58 C 486.85 589.32 475.91 600.71 492.99 597.49 C 500.57 604.48 510.03 598.55 513.78 590.65 C 520.31 588.53 531.53 584.40 527.63 575.45 C 525.24 571.62 532.52 561.50 526.59 562.52 M 106.18 568.44 C 107.17 572.83 100.18 578.40 105.73 580.83 C 106.59 577.30 109.04 571.03 106.18 568.44 M 600.09 568.04 C 598.40 572.00 600.40 577.94 602.06 580.64 C 605.66 577.43 600.52 572.13 600.09 568.04 M 239.49 570.66 C 226.49 570.21 226.54 590.60 238.83 591.90 C 243.55 584.71 258.19 565.42 239.49 570.66 M 457.68 570.37 C 457.92 577.51 465.27 584.46 467.38 591.81 C 474.32 592.07 480.64 581.87 476.11 576.06 C 472.98 568.78 464.08 570.64 457.68 570.37 M 348.19 578.56 C 342.86 581.59 336.02 584.63 331.44 587.93 C 337.99 593.41 340.54 607.21 351.52 604.64 C 364.76 609.38 368.37 594.71 375.56 587.92 C 367.84 582.40 358.47 577.35 348.19 578.56 M 109.55 583.11 C 106.24 585.70 101.30 590.58 105.26 594.79 C 109.41 596.28 103.79 585.80 107.87 590.21 C 110.11 598.88 117.98 580.82 109.55 583.11 M 594.21 583.27 C 591.55 586.36 597.44 597.43 599.13 590.17 C 603.25 585.56 597.31 597.93 602.34 594.27 C 604.66 589.97 599.61 581.68 594.21 583.27 M 135.43 587.34 C 131.30 591.00 126.20 594.89 124.03 599.87 C 126.84 604.82 134.46 610.19 140.15 606.30 C 147.37 601.62 142.50 587.88 135.43 587.34 M 569.35 587.06 C 558.84 592.64 563.31 613.37 576.15 606.27 C 590.31 601.61 576.58 589.52 569.35 587.06 M 153.01 591.05 C 147.55 604.56 156.68 620.51 171.85 618.82 C 174.89 633.63 192.63 637.13 203.78 628.75 C 201.95 616.00 190.24 608.14 177.80 610.37 C 176.58 597.48 165.17 591.05 153.01 591.05 M 552.39 591.48 C 539.27 589.79 531.15 599.62 528.61 610.86 C 516.03 607.21 505.19 616.89 503.21 628.75 C 514.25 637.01 532.02 633.77 534.80 618.93 C 550.28 622.13 561.19 600.15 552.39 591.48 M 319.11 593.22 C 316.02 598.89 316.40 609.26 315.16 616.74 C 320.62 619.44 327.14 616.78 330.80 612.35 C 335.25 603.36 325.74 597.07 319.11 593.22 M 387.27 593.52 C 382.08 596.71 373.76 601.14 375.54 608.28 C 375.14 615.91 387.33 620.67 391.84 615.94 C 389.37 609.15 391.89 596.72 387.27 593.52 M 265.62 594.93 C 252.47 617.40 242.37 641.40 231.06 664.80 C 239.23 663.94 247.14 664.78 255.16 662.31 C 251.63 666.95 242.06 665.28 239.19 670.04 C 245.85 669.40 251.67 665.20 258.44 665.13 C 262.48 669.50 264.09 676.48 269.84 679.19 C 267.24 673.93 262.40 669.96 260.73 664.24 C 266.22 670.51 272.80 676.38 279.98 679.80 C 282.68 654.24 290.66 629.40 291.87 603.70 C 284.63 598.12 274.49 596.12 265.62 594.93 M 435.64 595.45 C 428.54 597.26 421.20 599.41 415.03 603.43 C 417.37 629.01 423.51 655.38 427.85 679.76 C 434.34 675.55 441.08 670.58 446.27 664.24 C 444.60 669.96 439.76 673.93 437.16 679.19 C 442.92 676.48 444.51 669.50 448.56 665.13 C 455.36 665.29 461.26 669.24 467.92 670.18 C 464.84 664.75 455.16 667.49 451.83 662.29 C 459.84 664.80 467.77 663.93 475.94 664.80 C 464.74 641.36 454.41 617.55 441.53 594.94 C 440.05 595.07 437.11 595.32 435.64 595.45 M 110.47 598.47 C 97.43 605.49 119.31 604.24 110.47 598.47 M 595.02 598.12 C 591.78 603.64 597.50 601.91 599.96 604.88 C 602.81 600.98 598.61 598.42 595.02 598.12 M 220.28 606.51 C 216.27 607.49 211.50 608.74 209.10 612.32 C 205.54 620.21 214.72 626.00 220.81 628.70 C 224.76 620.19 239.18 604.22 220.28 606.51 M 486.01 606.55 C 467.52 604.75 483.03 620.54 486.18 628.70 C 492.53 626.01 501.98 619.63 497.58 611.62 C 494.49 608.70 490.21 606.94 486.01 606.55 M 130.07 616.27 C 126.86 628.48 139.13 636.95 149.72 637.93 C 156.06 627.28 141.60 612.98 130.07 616.27 M 574.37 616.45 C 564.28 614.67 551.84 627.59 556.77 637.30 C 566.85 640.01 584.01 623.28 574.37 616.45 M 340.60 621.47 C 335.89 624.71 330.33 626.06 325.10 628.13 C 331.50 636.50 339.47 651.29 352.58 642.52 C 358.61 644.45 371.10 648.30 372.91 638.93 C 373.86 633.82 381.10 632.90 381.90 628.14 C 373.32 626.64 365.74 617.34 357.23 624.18 C 351.66 628.40 346.31 620.05 340.60 621.47 M 159.06 626.23 C 159.81 631.98 164.32 635.00 169.90 633.57 C 167.25 630.12 164.13 625.30 159.06 626.23 M 544.40 626.76 C 541.52 627.50 533.31 635.45 540.82 633.64 C 545.56 635.75 551.01 623.35 544.40 626.76 M 312.50 634.97 C 309.54 641.31 309.47 650.45 309.22 657.84 C 315.76 658.24 326.05 659.15 327.51 650.57 C 327.21 642.82 319.66 636.75 312.50 634.97 M 393.15 635.32 C 386.62 637.52 379.68 643.28 379.49 650.57 C 380.97 659.11 391.25 658.33 397.76 657.95 C 395.84 651.66 399.19 637.54 393.15 635.32 M 200.89 639.58 C 188.38 642.21 195.35 660.60 206.55 658.57 C 209.53 653.78 211.77 648.22 213.81 643.10 C 210.95 639.66 205.26 639.09 200.89 639.58 M 500.85 639.59 C 487.27 639.59 497.76 653.47 501.06 658.82 C 516.55 659.63 515.76 635.61 500.85 639.59 M 166.91 642.52 C 151.75 649.11 181.34 669.19 187.52 656.37 C 185.78 646.66 175.62 642.96 166.91 642.52 M 537.11 642.64 C 528.70 643.68 519.96 648.55 519.51 657.64 C 528.91 665.03 542.62 656.13 545.80 646.08 C 543.69 643.66 540.41 641.71 537.11 642.64 M 128.34 644.72 C 130.03 647.84 128.56 654.68 132.75 654.94 C 132.98 651.41 133.62 644.76 128.34 644.72 M 576.48 645.27 C 574.27 646.17 574.29 649.01 574.17 651.02 C 573.69 663.18 582.15 642.74 576.48 645.27 M 142.24 651.91 C 142.88 655.73 146.56 658.47 150.41 657.61 C 148.42 654.89 145.69 652.40 142.24 651.91 M 562.60 652.49 C 560.12 653.51 558.17 655.48 556.59 657.61 C 560.30 660.05 567.74 651.29 562.60 652.49 M 335.52 660.43 C 330.96 661.93 327.03 665.09 322.24 666.22 C 325.06 680.10 341.69 688.71 353.16 678.36 C 365.08 688.34 380.37 680.32 384.81 666.97 C 376.24 660.11 361.01 657.25 353.83 668.70 C 349.17 664.27 342.90 659.21 335.52 660.43 M 218.99 665.34 C 211.86 671.56 227.72 672.70 215.42 674.13 C 220.45 682.14 233.05 660.27 218.99 665.34 M 240.41 665.56 C 235.86 665.83 231.42 667.98 229.15 671.99 C 232.74 670.69 239.88 667.71 240.41 665.56 M 465.93 665.43 C 469.08 668.63 473.67 670.40 477.85 671.99 C 475.48 667.69 470.67 665.80 465.93 665.43 M 481.21 665.38 C 481.22 670.56 486.01 678.95 492.01 674.70 C 492.07 671.64 485.11 673.71 486.54 671.91 C 494.09 671.73 486.98 660.92 481.21 665.38 M 152.56 666.18 C 147.81 670.66 158.14 667.88 160.91 668.90 C 161.79 664.44 154.52 666.21 152.56 666.18 M 547.56 666.18 C 542.81 670.66 553.14 667.88 555.91 668.90 C 556.80 664.44 549.50 666.21 547.56 666.18 M 206.80 670.01 C 209.06 673.48 202.22 675.88 208.72 676.86 C 209.39 673.84 215.07 666.96 206.80 670.01 M 495.80 669.91 C 497.04 682.96 506.50 670.17 495.80 669.91 M 306.30 672.20 C 303.13 677.27 303.94 684.11 301.97 689.73 C 306.66 692.99 314.36 693.04 318.81 689.69 C 324.96 680.95 315.09 671.70 306.30 672.20 M 400.07 672.31 C 391.45 672.30 382.16 681.10 388.19 689.65 C 392.65 693.24 400.19 692.73 405.00 689.84 C 402.62 684.58 404.40 675.87 400.07 672.31 M 269.91 674.94 C 272.36 678.92 272.51 684.68 277.04 687.05 C 275.49 682.60 274.32 677.41 269.91 674.94 M 436.49 675.38 C 432.45 677.89 431.48 682.86 429.96 687.05 C 434.05 685.22 435.99 676.95 436.49 675.38 M 283.16 684.09 C 275.04 690.26 289.44 703.62 282.83 691.94 C 289.86 698.31 288.86 684.07 283.16 684.09 M 422.31 684.12 C 419.01 686.07 417.04 696.74 422.70 692.58 C 426.74 690.58 418.78 696.82 421.98 696.98 C 428.17 697.28 427.05 684.69 422.31 684.12 M 350.09 689.67 C 343.24 690.48 354.23 698.88 356.84 693.84 C 363.75 689.83 353.68 688.68 350.09 689.67 M 329.14 694.45 C 304.95 697.81 330.70 717.05 342.48 708.60 C 353.08 702.66 335.69 694.31 329.14 694.45 M 376.48 694.69 C 370.73 696.93 359.57 697.89 361.05 706.54 C 369.46 712.77 385.65 711.19 388.90 700.08 C 385.15 697.82 381.07 693.93 376.48 694.69 M 291.07 696.61 C 285.09 710.62 302.77 699.56 291.07 696.61 M 415.28 696.33 C 408.86 698.29 413.72 700.82 413.29 704.98 C 417.44 703.92 419.39 699.27 415.28 696.33 M 350.57 721.21 C 346.96 727.83 367.62 719.32 350.57 721.21 M 333.37 723.70 C 334.99 727.06 339.10 728.64 341.93 730.99 C 344.26 727.12 336.95 723.83 333.37 723.70 M 370.56 724.35 C 367.95 724.95 362.68 728.35 365.07 730.99 C 367.37 729.40 377.64 722.80 370.56 724.35 Z" />
<path fill="#000000" opacity="1.00" d=" M 331.42 33.22 C 334.81 31.58 338.12 37.99 334.49 39.43 C 330.82 41.78 326.73 34.35 331.42 33.22 Z" />
<path fill="#000000" opacity="1.00" d=" M 373.34 33.20 C 378.22 31.70 379.07 38.59 374.73 39.82 C 370.41 40.74 369.76 34.60 373.34 33.20 Z" />
<path fill="#000000" opacity="1.00" d=" M 335.22 64.43 C 339.23 62.66 346.06 67.64 340.77 70.88 C 336.06 75.98 329.47 67.12 335.22 64.43 Z" />
<path fill="#000000" opacity="1.00" d=" M 367.13 64.58 C 370.81 62.79 376.03 66.10 373.36 70.22 C 369.57 76.16 359.58 67.34 367.13 64.58 Z" />
<path fill="#000000" opacity="1.00" d=" M 269.28 70.25 C 277.90 68.56 277.18 84.65 268.83 83.97 C 264.98 82.01 262.33 70.96 269.28 70.25 Z" />
<path fill="#000000" opacity="1.00" d=" M 435.37 70.20 C 443.90 68.33 443.31 81.50 438.20 83.99 C 430.97 84.27 428.94 72.27 435.37 70.20 Z" />
<path fill="#000000" opacity="1.00" d=" M 247.45 77.26 C 253.62 75.94 258.30 88.88 250.83 89.89 C 244.26 90.67 239.28 78.84 247.45 77.26 Z" />
<path fill="#000000" opacity="1.00" d=" M 457.32 77.24 C 467.22 75.73 464.34 90.87 456.16 89.88 C 449.27 88.70 453.08 79.32 457.32 77.24 Z" />
<path fill="#000000" opacity="1.00" d=" M 174.14 84.23 C 178.62 83.82 178.76 91.87 174.23 90.94 C 170.61 90.33 170.41 85.00 174.14 84.23 Z" />
<path fill="#000000" opacity="1.00" d=" M 532.15 84.25 C 536.29 84.07 536.83 90.34 532.77 90.94 C 528.66 91.83 528.17 84.79 532.15 84.25 Z" />
<path fill="#000000" opacity="1.00" d=" M 261.37 89.26 C 268.85 90.27 276.68 101.23 268.80 107.95 C 259.02 107.21 258.93 96.35 261.37 89.26 Z" />
<path fill="#000000" opacity="1.00" d=" M 442.46 89.16 C 451.10 89.64 447.19 112.04 437.16 106.82 C 430.92 99.48 438.17 94.76 442.46 89.16 Z" />
<path fill="#000000" opacity="1.00" d=" M 342.29 102.27 C 345.43 101.61 349.28 107.64 345.08 109.13 C 340.66 112.85 336.45 102.54 342.29 102.27 Z" />
<path fill="#000000" opacity="1.00" d=" M 363.28 102.19 C 370.39 100.69 367.33 112.98 361.92 109.13 C 358.16 107.64 360.87 103.53 363.28 102.19 Z" />
<path fill="#000000" opacity="1.00" d=" M 139.37 109.21 C 141.75 108.42 146.63 111.82 143.91 114.22 C 140.52 118.07 133.70 111.25 139.37 109.21 Z" />
<path fill="#000000" opacity="1.00" d=" M 565.48 109.28 C 569.00 107.67 572.03 113.75 567.47 114.73 C 561.69 117.29 560.84 110.39 565.48 109.28 Z" />
<path fill="#000000" opacity="1.00" d=" M 188.56 112.33 C 195.94 110.11 194.57 121.25 188.16 120.59 C 182.41 120.48 184.16 113.26 188.56 112.33 Z" />
<path fill="#000000" opacity="1.00" d=" M 515.56 112.25 C 519.56 110.63 525.67 117.41 520.87 119.96 C 516.36 123.00 509.51 114.67 515.56 112.25 Z" />
<path fill="#000000" opacity="1.00" d=" M 273.36 114.52 C 279.85 112.33 286.27 123.12 278.61 125.54 C 273.74 123.57 268.76 132.12 265.30 126.50 C 261.33 120.63 267.75 115.00 273.36 114.52 Z" />
<path fill="#000000" opacity="1.00" d=" M 432.16 114.38 C 438.15 114.40 445.96 119.88 441.70 126.50 C 438.22 132.14 433.25 123.51 428.36 125.57 C 421.54 123.14 425.97 113.73 432.16 114.38 Z" />
<path fill="#000000" opacity="1.00" d=" M 162.54 131.31 C 169.66 128.04 169.20 137.50 164.42 138.90 C 157.90 142.28 156.88 131.39 162.54 131.31 Z" />
<path fill="#000000" opacity="1.00" d=" M 540.29 131.08 C 543.80 130.32 550.67 132.34 547.80 137.63 C 544.44 142.74 535.39 134.99 540.29 131.08 Z" />
<path fill="#000000" opacity="1.00" d=" M 349.69 143.23 C 353.33 141.89 361.90 142.66 359.74 148.54 C 356.75 156.43 340.63 148.94 349.69 143.23 Z" />
<path fill="#000000" opacity="1.00" d=" M 206.26 146.23 C 211.63 145.08 211.98 153.97 207.02 154.02 C 202.50 154.23 202.24 147.28 206.26 146.23 Z" />
<path fill="#000000" opacity="1.00" d=" M 499.30 146.24 C 503.83 145.32 505.45 153.23 500.75 153.98 C 496.25 155.02 494.44 146.94 499.30 146.24 Z" />
<path fill="#000000" opacity="1.00" d=" M 284.68 157.34 C 290.29 153.76 293.30 162.90 287.99 164.37 C 281.70 168.79 276.73 157.56 284.68 157.34 Z" />
<path fill="#000000" opacity="1.00" d=" M 417.61 157.25 C 420.60 156.01 429.79 158.56 425.69 162.84 C 422.76 168.81 412.28 162.25 417.61 157.25 Z" />
<path fill="#000000" opacity="1.00" d=" M 188.42 159.25 C 192.88 156.96 196.48 164.65 191.21 165.75 C 186.95 167.48 183.79 160.97 188.42 159.25 Z" />
<path fill="#000000" opacity="1.00" d=" M 515.44 159.24 C 518.96 157.47 523.15 162.63 519.57 165.20 C 515.56 168.44 509.83 161.57 515.44 159.24 Z" />
<path fill="#000000" opacity="1.00" d=" M 111.42 175.23 C 117.29 173.41 123.49 184.37 117.59 187.77 C 110.80 189.52 103.95 178.87 111.42 175.23 Z" />
<path fill="#000000" opacity="1.00" d=" M 592.50 175.03 C 601.50 174.03 599.90 187.43 591.74 187.96 C 583.98 188.46 587.35 176.81 592.50 175.03 Z" />
<path fill="#000000" opacity="1.00" d=" M 222.81 184.44 C 234.29 182.02 226.53 199.20 218.76 194.34 C 214.12 190.73 219.05 185.98 222.81 184.44 Z" />
<path fill="#000000" opacity="1.00" d=" M 480.34 184.15 C 484.76 183.67 492.36 187.93 489.34 193.23 C 484.66 198.91 473.43 189.06 480.34 184.15 Z" />
<path fill="#000000" opacity="1.00" d=" M 97.45 194.19 C 102.22 193.07 111.58 199.38 105.67 203.92 C 99.20 208.95 88.93 198.92 97.45 194.19 Z" />
<path fill="#000000" opacity="1.00" d=" M 607.05 194.24 C 614.10 192.93 614.83 204.88 607.34 204.59 C 597.40 208.21 597.33 193.79 607.05 194.24 Z" />
<path fill="#000000" opacity="1.00" d=" M 115.55 195.32 C 122.44 196.80 132.71 195.80 130.97 206.97 C 124.89 215.76 112.26 201.18 115.55 195.32 Z" />
<path fill="#000000" opacity="1.00" d=" M 586.85 195.43 C 599.29 193.38 587.58 203.97 586.42 208.90 C 569.57 213.89 576.49 194.28 586.85 195.43 Z" />
<path fill="#000000" opacity="1.00" d=" M 142.43 208.27 C 156.21 207.11 147.43 220.15 142.32 224.44 C 131.59 226.94 134.29 209.27 142.43 208.27 Z" />
<path fill="#000000" opacity="1.00" d=" M 561.42 208.28 C 568.36 206.55 572.30 214.94 571.95 220.62 C 567.17 233.11 548.81 210.39 561.42 208.28 Z" />
<path fill="#000000" opacity="1.00" d=" M 177.20 235.34 C 184.36 236.19 178.95 248.88 173.26 244.69 C 168.41 242.01 173.86 236.57 177.20 235.34 Z" />
<path fill="#000000" opacity="1.00" d=" M 529.12 235.09 C 532.72 236.08 538.74 241.79 533.74 244.69 C 528.47 248.39 522.77 237.82 529.12 235.09 Z" />
<path fill="#000000" opacity="1.00" d=" M 42.04 242.99 C 55.01 248.14 34.19 253.63 42.04 242.99 Z" />
<path fill="#000000" opacity="1.00" d=" M 664.26 243.26 C 667.92 243.45 667.96 250.87 663.16 249.99 C 658.26 249.25 660.76 244.06 664.26 243.26 Z" />
<path fill="#000000" opacity="1.00" d=" M 70.37 257.26 C 75.43 255.16 77.89 262.15 73.79 264.89 C 69.03 270.16 64.55 258.13 70.37 257.26 Z" />
<path fill="#000000" opacity="1.00" d=" M 633.40 257.15 C 639.03 255.35 640.60 262.11 637.68 265.88 C 632.93 267.79 628.13 259.42 633.40 257.15 Z" />
<path fill="#000000" opacity="1.00" d=" M 105.12 274.16 C 108.44 274.47 112.15 278.96 108.27 281.36 C 103.69 284.39 99.53 275.61 105.12 274.16 Z" />
<path fill="#000000" opacity="1.00" d=" M 601.18 274.29 C 606.90 274.24 604.54 283.65 599.37 281.79 C 595.14 279.94 597.59 275.03 601.18 274.29 Z" />
<path fill="#000000" opacity="1.00" d=" M 28.19 283.11 C 31.34 281.67 36.43 287.06 32.54 288.79 C 28.04 291.85 25.09 285.49 28.19 283.11 Z" />
<path fill="#000000" opacity="1.00" d=" M 676.41 283.16 C 682.18 281.14 680.60 293.13 674.46 288.79 C 671.27 287.86 674.03 283.44 676.41 283.16 Z" />
<path fill="#000000" opacity="1.00" d=" M 62.19 286.27 C 67.27 286.61 67.15 297.23 61.18 295.94 C 55.69 295.64 58.25 287.14 62.19 286.27 Z" />
<path fill="#000000" opacity="1.00" d=" M 644.10 286.03 C 648.97 286.50 651.55 296.47 645.00 296.03 C 639.94 295.77 640.05 288.13 644.10 286.03 Z" />
<path fill="#000000" opacity="1.00" d=" M 99.28 294.23 C 104.78 292.94 105.56 304.49 98.18 300.93 C 94.40 300.31 95.76 294.45 99.28 294.23 Z" />
<path fill="#000000" opacity="1.00" d=" M 142.23 294.26 C 149.20 293.50 147.42 304.22 143.53 306.90 C 134.56 309.98 135.72 295.02 142.23 294.26 Z" />
<path fill="#000000" opacity="1.00" d=" M 563.25 294.20 C 571.48 292.79 572.80 311.44 562.79 306.44 C 560.24 303.38 557.85 295.62 563.25 294.20 Z" />
<path fill="#000000" opacity="1.00" d=" M 606.26 294.20 C 609.80 293.28 613.23 298.68 609.52 300.77 C 603.28 304.62 601.20 295.66 606.26 294.20 Z" />
<path fill="#000000" opacity="1.00" d=" M 45.55 353.18 C 50.72 350.97 59.47 357.46 54.72 362.64 C 48.37 367.43 37.37 358.70 45.55 353.18 Z" />
<path fill="#000000" opacity="1.00" d=" M 656.65 353.26 C 666.15 348.89 666.65 366.40 656.83 363.74 C 648.94 365.02 649.96 353.99 656.65 353.26 Z" />
<path fill="#000000" opacity="1.00" d=" M 92.36 360.29 C 101.04 359.41 96.49 372.36 97.14 377.04 C 86.62 384.74 80.93 362.20 92.36 360.29 Z" />
<path fill="#000000" opacity="1.00" d=" M 612.44 360.28 C 625.98 358.55 621.57 385.51 609.88 376.93 C 611.03 372.19 605.90 362.73 612.44 360.28 Z" />
<path fill="#000000" opacity="1.00" d=" M 69.49 363.48 C 73.51 362.37 76.82 367.06 79.09 369.89 C 73.93 379.18 63.21 374.65 57.93 369.12 C 60.71 365.27 65.93 366.25 69.49 363.48 Z" />
<path fill="#000000" opacity="1.00" d=" M 635.38 363.27 C 640.00 365.02 646.12 365.09 649.07 369.88 C 643.92 372.39 635.73 379.40 630.71 372.40 C 624.79 369.07 631.97 365.18 635.38 363.27 Z" />
<path fill="#000000" opacity="1.00" d=" M 132.07 363.96 C 139.57 362.97 140.64 375.34 132.87 374.89 C 129.36 373.34 129.68 366.98 132.07 363.96 Z" />
<path fill="#000000" opacity="1.00" d=" M 573.35 364.27 C 578.51 363.65 577.83 377.94 571.76 374.26 C 566.65 373.08 567.94 363.90 573.35 364.27 Z" />
<path fill="#000000" opacity="1.00" d=" M 50.17 375.26 C 58.05 373.98 57.04 385.01 50.35 385.74 C 40.85 390.11 40.35 372.59 50.17 375.26 Z" />
<path fill="#000000" opacity="1.00" d=" M 655.25 375.33 C 660.95 373.43 667.49 379.76 662.81 384.87 C 656.40 391.38 644.82 376.97 655.25 375.33 Z" />
<path fill="#000000" opacity="1.00" d=" M 139.42 432.13 C 147.09 428.66 150.44 445.76 142.23 444.74 C 137.17 444.04 135.02 434.72 139.42 432.13 Z" />
<path fill="#000000" opacity="1.00" d=" M 563.47 432.10 C 573.12 428.89 571.00 446.16 563.25 444.80 C 557.76 443.31 560.11 434.69 563.47 432.10 Z" />
<path fill="#000000" opacity="1.00" d=" M 97.48 438.23 C 101.28 435.71 105.58 439.61 102.94 442.96 C 100.60 448.27 92.31 441.29 97.48 438.23 Z" />
<path fill="#000000" opacity="1.00" d=" M 604.67 438.17 C 609.36 434.75 613.75 442.03 609.12 444.13 C 605.59 447.29 600.90 440.45 604.67 438.17 Z" />
<path fill="#000000" opacity="1.00" d=" M 60.37 443.27 C 64.99 441.06 67.95 448.62 64.42 451.34 C 60.65 456.63 54.61 444.21 60.37 443.27 Z" />
<path fill="#000000" opacity="1.00" d=" M 643.35 443.07 C 650.98 440.80 650.04 452.17 644.10 452.97 C 640.63 450.69 639.93 445.75 643.35 443.07 Z" />
<path fill="#000000" opacity="1.00" d=" M 28.35 450.15 C 43.93 449.61 21.62 462.22 28.35 450.15 Z" />
<path fill="#000000" opacity="1.00" d=" M 674.46 450.21 C 678.48 447.41 681.58 452.57 679.36 455.30 C 676.65 458.30 670.19 452.03 674.46 450.21 Z" />
<path fill="#000000" opacity="1.00" d=" M 105.35 457.24 C 109.35 455.76 111.91 462.15 107.73 463.70 C 103.10 467.77 99.88 458.32 105.35 457.24 Z" />
<path fill="#000000" opacity="1.00" d=" M 599.37 457.21 C 603.58 455.65 606.98 462.71 602.49 464.47 C 598.69 465.70 594.40 459.14 599.37 457.21 Z" />
<path fill="#000000" opacity="1.00" d=" M 69.32 473.12 C 74.49 470.98 79.12 480.79 72.81 482.01 C 67.39 483.01 66.79 476.56 69.32 473.12 Z" />
<path fill="#000000" opacity="1.00" d=" M 634.43 473.10 C 640.17 470.97 641.33 483.04 635.00 482.05 C 629.46 482.09 630.58 474.92 634.43 473.10 Z" />
<path fill="#000000" opacity="1.00" d=" M 42.31 489.27 C 46.14 487.99 48.45 492.70 44.70 494.72 C 41.21 498.82 37.49 489.88 42.31 489.27 Z" />
<path fill="#000000" opacity="1.00" d=" M 662.43 489.26 C 665.34 488.08 668.59 491.49 666.34 494.18 C 664.48 499.11 656.60 490.45 662.43 489.26 Z" />
<path fill="#000000" opacity="1.00" d=" M 175.13 493.27 C 180.19 493.80 183.15 501.13 177.88 503.91 C 172.95 502.85 167.93 495.13 175.13 493.27 Z" />
<path fill="#000000" opacity="1.00" d=" M 531.15 493.25 C 538.98 494.15 534.57 502.94 529.12 503.91 C 524.15 501.14 526.48 494.74 531.15 493.25 Z" />
<path fill="#000000" opacity="1.00" d=" M 138.55 514.24 C 146.19 513.44 146.15 522.11 150.93 525.99 C 145.83 539.69 126.91 521.47 138.55 514.24 Z" />
<path fill="#000000" opacity="1.00" d=" M 564.68 514.56 C 577.35 512.16 571.05 534.91 560.65 530.53 C 551.00 527.41 561.89 518.64 564.68 514.56 Z" />
<path fill="#000000" opacity="1.00" d=" M 120.58 530.10 C 131.88 525.10 132.98 535.98 127.74 541.82 C 122.82 539.67 118.75 546.68 114.10 542.91 C 114.21 537.71 119.70 535.15 120.58 530.10 Z" />
<path fill="#000000" opacity="1.00" d=" M 577.55 530.21 C 586.38 526.52 590.61 536.29 592.87 542.95 C 585.56 544.96 571.05 540.11 577.55 530.21 Z" />
<path fill="#000000" opacity="1.00" d=" M 99.66 534.40 C 106.09 530.84 111.14 541.01 103.86 543.09 C 96.25 550.89 89.26 534.79 99.66 534.40 Z" />
<path fill="#000000" opacity="1.00" d=" M 602.65 534.24 C 606.99 532.71 615.59 536.53 612.13 542.02 C 608.69 550.24 592.93 538.57 602.65 534.24 Z" />
<path fill="#000000" opacity="1.00" d=" M 219.41 544.22 C 224.51 542.72 232.27 549.62 227.20 554.30 C 222.15 557.13 212.47 548.36 219.41 544.22 Z" />
<path fill="#000000" opacity="1.00" d=" M 483.66 544.34 C 495.45 541.76 487.46 558.85 479.80 554.30 C 475.74 550.68 479.85 545.87 483.66 544.34 Z" />
<path fill="#000000" opacity="1.00" d=" M 114.50 551.23 C 124.62 549.03 118.30 568.00 110.82 563.34 C 105.20 559.99 109.13 552.56 114.50 551.23 Z" />
<path fill="#000000" opacity="1.00" d=" M 589.41 551.23 C 594.94 549.78 602.47 557.68 597.34 562.32 C 591.82 568.75 582.65 554.88 589.41 551.23 Z" />
<path fill="#000000" opacity="1.00" d=" M 187.94 573.37 C 191.30 571.72 196.18 575.71 192.86 578.85 C 189.35 582.91 182.88 576.22 187.94 573.37 Z" />
<path fill="#000000" opacity="1.00" d=" M 515.13 573.40 C 518.94 571.36 523.44 576.74 519.25 579.34 C 515.40 582.48 510.15 575.62 515.13 573.40 Z" />
<path fill="#000000" opacity="1.00" d=" M 282.68 574.25 C 286.77 572.24 293.45 576.78 289.79 581.05 C 285.44 584.39 276.11 578.88 282.68 574.25 Z" />
<path fill="#000000" opacity="1.00" d=" M 419.70 574.25 C 425.19 571.08 430.02 580.76 423.10 581.44 C 416.59 585.87 413.44 575.61 419.70 574.25 Z" />
<path fill="#000000" opacity="1.00" d=" M 205.48 585.16 C 209.84 583.17 212.95 591.08 208.36 592.47 C 204.10 594.51 201.21 586.96 205.48 585.16 Z" />
<path fill="#000000" opacity="1.00" d=" M 498.45 585.20 C 503.58 583.11 505.69 591.40 500.74 592.77 C 496.16 593.55 494.97 587.40 498.45 585.20 Z" />
<path fill="#000000" opacity="1.00" d=" M 350.36 587.54 C 354.55 586.29 361.36 587.96 359.87 593.61 C 355.45 601.50 340.41 592.64 350.36 587.54 Z" />
<path fill="#000000" opacity="1.00" d=" M 160.31 600.19 C 164.15 598.38 169.36 602.65 167.83 606.70 C 164.44 611.44 154.45 604.62 160.31 600.19 Z" />
<path fill="#000000" opacity="1.00" d=" M 542.58 600.10 C 549.09 596.71 550.11 607.60 544.46 607.69 C 537.33 610.96 537.80 601.50 542.58 600.10 Z" />
<path fill="#000000" opacity="1.00" d=" M 267.29 610.31 C 272.41 613.97 283.61 611.15 281.86 620.48 C 276.25 630.92 256.55 619.04 267.29 610.31 Z" />
<path fill="#000000" opacity="1.00" d=" M 438.98 610.38 C 450.89 617.00 431.94 631.37 425.61 621.06 C 421.91 611.23 434.21 614.39 438.98 610.38 Z" />
<path fill="#000000" opacity="1.00" d=" M 188.16 618.41 C 192.02 618.19 196.36 623.96 192.07 626.43 C 186.81 629.64 180.29 618.95 188.16 618.41 Z" />
<path fill="#000000" opacity="1.00" d=" M 518.14 618.44 C 526.16 617.88 521.44 628.92 515.56 626.75 C 510.72 624.99 514.14 618.71 518.14 618.44 Z" />
<path fill="#000000" opacity="1.00" d=" M 139.53 624.27 C 155.02 625.47 130.46 634.46 139.53 624.27 Z" />
<path fill="#000000" opacity="1.00" d=" M 563.53 624.14 C 565.60 622.65 571.80 625.47 569.38 628.34 C 567.10 632.53 559.40 627.22 563.53 624.14 Z" />
<path fill="#000000" opacity="1.00" d=" M 341.34 629.23 C 347.33 627.62 348.70 635.75 343.00 636.92 C 338.05 636.55 339.24 632.21 341.34 629.23 Z" />
<path fill="#000000" opacity="1.00" d=" M 363.35 629.26 C 366.53 627.89 369.56 635.27 366.05 636.14 C 361.64 639.30 356.94 629.81 363.35 629.26 Z" />
<path fill="#000000" opacity="1.00" d=" M 267.85 631.27 C 277.25 635.83 269.12 649.27 261.37 649.74 C 259.60 643.05 258.06 632.46 267.85 631.27 Z" />
<path fill="#000000" opacity="1.00" d=" M 438.28 631.18 C 448.23 630.98 448.59 644.33 444.84 649.91 C 437.97 647.59 430.32 637.76 438.28 631.18 Z" />
<path fill="#000000" opacity="1.00" d=" M 173.47 648.19 C 177.94 646.35 179.27 654.05 174.85 654.75 C 171.17 654.81 170.04 649.74 173.47 648.19 Z" />
<path fill="#000000" opacity="1.00" d=" M 530.47 648.28 C 534.01 646.43 537.91 651.98 534.11 654.12 C 530.60 656.50 527.69 650.83 530.47 648.28 Z" />
<path fill="#000000" opacity="1.00" d=" M 248.61 649.29 C 259.16 646.73 253.72 665.63 245.99 661.13 C 240.23 658.68 244.10 650.80 248.61 649.29 Z" />
<path fill="#000000" opacity="1.00" d=" M 455.45 649.28 C 461.41 647.50 467.73 658.25 460.98 661.15 C 454.65 665.08 448.34 651.27 455.45 649.28 Z" />
<path fill="#000000" opacity="1.00" d=" M 268.02 654.83 C 276.33 653.90 278.56 668.90 270.06 668.90 C 262.66 668.55 264.81 658.90 268.02 654.83 Z" />
<path fill="#000000" opacity="1.00" d=" M 437.40 655.23 C 442.16 655.27 444.82 668.28 437.72 668.75 C 429.52 670.58 429.57 655.13 437.40 655.23 Z" />
<path fill="#000000" opacity="1.00" d=" M 335.46 667.23 C 340.41 664.80 346.04 672.36 339.87 674.42 C 334.90 677.19 329.85 669.97 335.46 667.23 Z" />
<path fill="#000000" opacity="1.00" d=" M 367.53 667.23 C 373.65 663.68 376.75 674.76 370.41 674.73 C 365.28 675.95 361.57 669.20 367.53 667.23 Z" />
<path fill="#000000" opacity="1.00" d=" M 332.27 699.18 C 338.06 697.99 336.29 707.66 331.42 705.78 C 327.70 704.79 329.51 700.10 332.27 699.18 Z" />
<path fill="#000000" opacity="1.00" d=" M 373.21 699.23 C 376.36 698.15 379.75 704.03 376.23 705.37 C 372.46 708.44 368.27 700.21 373.21 699.23 Z" />
</svg>
